<svg width="184" height="49" viewBox="0 0 184 49" fill="none" xmlns="http://www.w3.org/2000/svg">
<path fill-rule="evenodd" clip-rule="evenodd" d="M6.73654 23.6544C11.0499 19.3937 16.9 17 23 17L23 32.256C20.9961 32.256 19.0743 33.0423 17.6573 34.4421C16.2403 35.8418 15.4443 37.7402 15.4443 39.7196C15.4443 40.8718 15.714 41.9965 16.2188 43.0114C15.3151 42.8217 14.3777 42.7219 13.4167 42.7219C8.59768 42.7219 4.37208 45.2316 2.00628 49C0.696123 46.1079 4.55166e-06 42.9492 3.98517e-06 39.7196C2.92824e-06 33.694 2.42321 27.9152 6.73654 23.6544Z" fill="#02BBDD"/>
<path fill-rule="evenodd" clip-rule="evenodd" d="M41.2635 25.3456C36.9501 29.6063 31.1 32 25 32L25 16.744C27.0039 16.744 28.9257 15.9576 30.3427 14.5579C31.7597 13.1582 32.5557 11.2598 32.5557 9.28036C32.5557 8.12818 32.286 7.00347 31.7812 5.98858C32.6849 6.17827 33.6223 6.27807 34.5833 6.27807C39.4023 6.27807 43.6279 3.76839 45.9937 1.75394e-07C47.3039 2.89206 48 6.05076 48 9.28036C48 15.306 45.5768 21.0848 41.2635 25.3456Z" fill="#02BBDD"/>
<path d="M71.64 40C69.3977 40 67.3236 39.5977 65.4176 38.7932C63.5397 37.9887 61.886 36.8652 60.4565 35.4226C59.0551 33.9801 57.962 32.2878 57.1772 30.3459C56.3924 28.404 56 26.2817 56 23.9792C56 21.6766 56.3784 19.5544 57.1352 17.6125C57.92 15.6428 59.0131 13.9506 60.4145 12.5358C61.844 11.0932 63.5117 9.98353 65.4176 9.20676C67.3236 8.40225 69.3977 8 71.64 8C73.8823 8 75.8863 8.37451 77.6521 9.12354C79.4459 9.87256 80.9595 10.8713 82.1927 12.1196C83.426 13.3403 84.3089 14.6857 84.8414 16.156L79.7122 18.528C79.1236 16.9744 78.1286 15.6983 76.7272 14.6996C75.3257 13.6732 73.63 13.1599 71.64 13.1599C69.678 13.1599 67.9402 13.6177 66.4266 14.5332C64.9411 15.4486 63.7779 16.7109 62.9371 18.3199C62.1243 19.9289 61.7178 21.8153 61.7178 23.9792C61.7178 26.143 62.1243 28.0433 62.9371 29.6801C63.7779 31.2891 64.9411 32.5514 66.4266 33.4668C67.9402 34.3823 69.678 34.8401 71.64 34.8401C73.63 34.8401 75.3257 34.3407 76.7272 33.342C78.1286 32.3156 79.1236 31.0256 79.7122 29.472L84.8414 31.844C84.3089 33.3143 83.426 34.6736 82.1927 35.922C80.9595 37.1426 79.4459 38.1274 77.6521 38.8765C75.8863 39.6255 73.8823 40 71.64 40Z" fill="#1D1D1D"/>
<path d="M95.5476 40C93.95 40 92.5626 39.7365 91.3854 39.2094C90.2082 38.6823 89.2972 37.9332 88.6526 36.9623C88.0079 35.9636 87.6856 34.8123 87.6856 33.5085C87.6856 32.2601 87.9659 31.1504 88.5264 30.1795C89.087 29.1808 89.9559 28.3485 91.1331 27.6827C92.3103 27.0169 93.7958 26.5453 95.5897 26.2679L103.073 25.0611V29.2224L96.6407 30.3043C95.5476 30.4985 94.7348 30.8453 94.2022 31.3446C93.6697 31.844 93.4034 32.4959 93.4034 33.3004C93.4034 34.0772 93.6977 34.7013 94.2863 35.173C94.903 35.6168 95.6597 35.8388 96.5566 35.8388C97.7058 35.8388 98.7148 35.6029 99.5837 35.1313C100.481 34.632 101.167 33.9523 101.644 33.0923C102.148 32.2323 102.401 31.2891 102.401 30.2627V24.4369C102.401 23.466 102.008 22.6615 101.223 22.0234C100.467 21.3576 99.4576 21.0247 98.1963 21.0247C97.0191 21.0247 95.968 21.3437 95.0431 21.9818C94.1462 22.5921 93.4875 23.4105 93.0671 24.4369L88.5685 22.2731C89.0169 21.0802 89.7177 20.0537 90.6706 19.1938C91.6516 18.306 92.8008 17.6125 94.1181 17.1131C95.4355 16.6138 96.865 16.3641 98.4065 16.3641C100.284 16.3641 101.938 16.7109 103.368 17.4044C104.797 18.0702 105.904 19.0134 106.689 20.2341C107.502 21.427 107.908 22.8279 107.908 24.4369V39.5007H102.695V35.6307L103.872 35.5475C103.284 36.5184 102.583 37.3368 101.77 38.0026C100.957 38.6407 100.032 39.14 98.9951 39.5007C97.9581 39.8335 96.8089 40 95.5476 40Z" fill="#1D1D1D"/>
<path d="M112.999 39.5007V8H118.506V39.5007H112.999Z" fill="#1D1D1D"/>
<path d="M123.592 39.5007V16.8635H128.763V22.1066L128.174 21.2328C128.595 19.596 129.436 18.3754 130.697 17.5709C131.958 16.7664 133.444 16.3641 135.153 16.3641C137.031 16.3641 138.685 16.8496 140.114 17.8205C141.544 18.7915 142.469 20.0676 142.889 21.6489L141.334 21.7737C142.034 19.9705 143.085 18.6251 144.487 17.7373C145.888 16.8218 147.5 16.3641 149.322 16.3641C150.947 16.3641 152.391 16.7247 153.652 17.446C154.942 18.1673 155.951 19.1799 156.679 20.4837C157.408 21.7599 157.772 23.244 157.772 24.9363V39.5007H152.265V26.2263C152.265 25.2276 152.083 24.3676 151.718 23.6463C151.354 22.925 150.849 22.3702 150.205 21.9818C149.56 21.5657 148.775 21.3576 147.85 21.3576C146.981 21.3576 146.211 21.5657 145.538 21.9818C144.865 22.3702 144.347 22.925 143.982 23.6463C143.618 24.3676 143.436 25.2276 143.436 26.2263V39.5007H137.928V26.2263C137.928 25.2276 137.746 24.3676 137.382 23.6463C137.017 22.925 136.499 22.3702 135.826 21.9818C135.181 21.5657 134.411 21.3576 133.514 21.3576C132.645 21.3576 131.874 21.5657 131.201 21.9818C130.529 22.3702 130.01 22.925 129.646 23.6463C129.281 24.3676 129.099 25.2276 129.099 26.2263V39.5007H123.592Z" fill="#1D1D1D"/>
<path d="M173.279 40C170.925 40 168.865 39.4729 167.099 38.4187C165.333 37.3645 163.96 35.9358 162.979 34.1326C161.998 32.3294 161.507 30.332 161.507 28.1404C161.507 25.8656 161.998 23.8544 162.979 22.1066C163.988 20.3312 165.347 18.9302 167.057 17.9038C168.794 16.8773 170.728 16.3641 172.859 16.3641C174.652 16.3641 176.222 16.6554 177.567 17.238C178.941 17.8205 180.104 18.6251 181.057 19.6515C182.01 20.6779 182.739 21.857 183.243 23.1886C183.748 24.4924 184 25.9072 184 27.433C184 27.8214 183.972 28.2237 183.916 28.6398C183.888 29.0559 183.818 29.4166 183.706 29.7217H166.048V25.5605H180.595L177.988 27.5163C178.24 26.2401 178.17 25.1027 177.778 24.104C177.413 23.1053 176.797 22.3147 175.928 21.7321C175.087 21.1495 174.064 20.8583 172.859 20.8583C171.709 20.8583 170.686 21.1495 169.789 21.7321C168.893 22.287 168.206 23.1192 167.729 24.2289C167.281 25.3108 167.113 26.6285 167.225 28.1821C167.113 29.5691 167.295 30.8036 167.771 31.8856C168.276 32.9397 169.005 33.7581 169.958 34.3407C170.939 34.9233 172.06 35.2146 173.321 35.2146C174.582 35.2146 175.647 34.951 176.516 34.4239C177.413 33.8968 178.114 33.1894 178.618 32.3017L183.075 34.4655C182.627 35.5475 181.926 36.5045 180.973 37.3368C180.02 38.169 178.885 38.821 177.567 39.2926C176.278 39.7642 174.849 40 173.279 40Z" fill="#1D1D1D"/>
</svg>
