<svg width="249" height="235" viewBox="0 0 249 235" fill="none" xmlns="http://www.w3.org/2000/svg">
<path d="M35.3719 199.334L29.6012 195.352C29.6012 195.352 26.2681 200.209 21.176 196.826C20.1829 196.192 19.4116 195.263 18.969 194.169C18.5264 193.076 18.4345 191.871 18.706 190.723C18.9212 189.755 19.362 188.852 19.9922 188.087C20.6225 187.322 21.4243 186.717 22.3323 186.322C24.4169 185.381 27.5709 185.392 30.991 188.759L39.9374 175.705L34.2319 171.772L28.9932 179.387C28.9932 179.387 19.5691 175.944 13.4999 184.778C7.69667 193.231 13.9125 200.411 17.1534 202.641C19.6288 204.387 28.4504 209.603 35.3719 199.334Z" fill="#EBEBEB"/>
<path d="M35.9808 169.06L41.7679 173.049L45.4882 167.632L39.7011 163.642L35.9808 169.06Z" fill="#EBEBEB"/>
<path d="M59.942 215.32L63.0038 214.51C62.9128 214.161 62.8921 213.797 62.9427 213.44C62.9934 213.083 63.1144 212.739 63.2988 212.429C63.4832 212.12 63.7273 211.85 64.0168 211.635C64.3063 211.421 64.6355 211.266 64.9852 211.181C65.4953 211.025 66.041 211.033 66.5462 211.204C67.0514 211.375 67.4907 211.699 67.8027 212.133C68.0708 212.491 68.2504 212.908 68.3269 213.35C68.4033 213.791 68.3743 214.245 68.2424 214.673C67.9493 215.668 67.0155 216.751 64.8549 216.93L66.6735 223.855L69.7027 223.055L68.617 218.997C69.7623 218.301 70.6481 217.248 71.1384 215.999C71.6287 214.75 71.6965 213.375 71.3313 212.084C70.1479 207.596 65.8538 207.612 64.1383 208.069C62.8518 208.417 58.46 209.919 59.942 215.32Z" fill="#EBEBEB"/>
<path d="M70.1298 224.461L67.0538 225.274L67.8114 228.151L70.8873 227.338L70.1298 224.461Z" fill="#EBEBEB"/>
<path d="M110.83 21.5021C112.379 20.5565 114.048 19.8246 115.792 19.3263L116.813 14.4308L125.113 14.2839L126.307 19.1794C128.068 19.6116 129.762 20.2794 131.345 21.1648L135.541 18.407L141.513 24.1837L138.913 28.4809C139.853 30.0363 140.583 31.71 141.084 33.458L145.997 34.4806L146.138 42.7975L141.252 43.9941C140.819 45.7575 140.152 47.455 139.271 49.0419L142.018 53.2466L136.252 59.23L131.964 56.6245C130.413 57.5701 128.742 58.302 126.997 58.8003L125.976 63.7284L117.676 63.8698L116.481 58.9744C114.72 58.5447 113.025 57.8767 111.444 56.989L107.247 59.7467L101.276 53.9701L103.876 49.6729C102.932 48.1192 102.202 46.4451 101.705 44.6958L96.8188 43.6732L96.6722 35.3563L101.558 34.1596C101.981 32.3851 102.642 30.6761 103.523 29.0792L100.771 24.8745L106.536 18.8911L110.83 21.5021ZM115.254 32.5822C114.033 33.8533 113.216 35.4586 112.905 37.1952C112.594 38.9319 112.805 40.7218 113.509 42.3387C114.214 43.9556 115.381 45.3268 116.864 46.279C118.346 47.2312 120.077 47.7215 121.837 47.688C123.598 47.6546 125.309 47.0988 126.754 46.091C128.199 45.0831 129.314 43.6685 129.957 42.026C130.6 40.3835 130.742 38.5869 130.366 36.8633C129.99 35.1397 129.112 33.5666 127.844 32.3429C126.142 30.7031 123.86 29.8073 121.5 29.8522C119.139 29.897 116.893 30.879 115.254 32.5822Z" fill="#F5F5F5"/>
<path d="M76.0867 4.16117C76.9814 3.62279 77.9434 3.20575 78.9476 2.92098L79.5339 0.0815903L84.3166 0L85.006 2.81219C86.0192 3.06045 86.9943 3.44468 87.9049 3.95447L90.3206 2.36615L93.7407 5.68965L92.2424 8.16459C92.7827 9.06021 93.2008 10.0243 93.4855 11.0312L96.3139 11.6186L96.3953 16.4108L93.5887 17.1125C93.3419 18.128 92.9584 19.1052 92.4487 20.0171L94.0338 22.4377L90.7115 25.8863L88.2415 24.385C87.3476 24.9264 86.3854 25.3453 85.3806 25.6306L84.7726 28.4591L79.9899 28.5462L79.3439 25.734C78.3313 25.4814 77.3565 25.0955 76.445 24.5863L74.0293 26.1746L70.5875 22.8456L72.0641 20.3761C71.5229 19.4829 71.1047 18.5205 70.8209 17.515L67.9926 16.9221L67.9058 12.1299L70.7178 11.4446C70.9646 10.4273 71.3481 9.44833 71.8578 8.53448L70.2727 6.11393L73.595 2.67076L76.0867 4.16117ZM78.6328 10.5471C77.9243 11.2773 77.4483 12.2018 77.2651 13.2035C77.0819 14.2052 77.1998 15.2388 77.6038 16.1733C78.0078 17.1077 78.6797 17.9009 79.5342 18.4521C80.3888 19.0034 81.3875 19.2878 82.4037 19.2695C83.4198 19.2511 84.4077 18.9307 85.2418 18.349C86.076 17.7672 86.7189 16.9503 87.089 16.0019C87.4591 15.0535 87.5397 14.0162 87.3206 13.0218C87.1015 12.0274 86.5925 11.1206 85.8583 10.4165C84.8794 9.47203 83.5665 8.95532 82.2077 8.97979C80.849 9.00427 79.5554 9.56794 78.6111 10.5471H78.6328Z" fill="#EBEBEB"/>
<path d="M228.67 93.1069C229.562 92.5668 230.522 92.1479 231.525 91.8612L232.117 89.0273L236.894 88.9457L237.583 91.7579C238.599 92.0051 239.576 92.3894 240.488 92.9002L242.904 91.3118L246.34 94.6408L244.842 97.1157C245.382 98.0113 245.8 98.9754 246.085 99.9823L248.918 100.57L249 105.362L246.193 106.053C245.941 107.066 245.557 108.043 245.053 108.957L246.633 111.378L243.316 114.827L240.846 113.325C239.952 113.867 238.99 114.286 237.985 114.571L237.393 117.405L232.616 117.492L231.927 114.674C230.913 114.427 229.938 114.043 229.028 113.532L226.607 115.12L223.17 111.791L224.669 109.316C224.127 108.421 223.709 107.457 223.426 106.45L220.597 105.862L220.51 101.07L223.317 100.379C223.57 99.3657 223.953 98.3893 224.457 97.4747L222.877 95.0542L226.194 91.6056L228.67 93.1069ZM231.216 99.4873C230.51 100.218 230.038 101.143 229.857 102.143C229.676 103.143 229.795 104.175 230.199 105.108C230.604 106.04 231.275 106.832 232.128 107.382C232.981 107.932 233.978 108.217 234.993 108.199C236.007 108.182 236.994 107.863 237.828 107.284C238.662 106.704 239.305 105.89 239.677 104.944C240.049 103.998 240.133 102.963 239.918 101.969C239.703 100.976 239.198 100.069 238.468 99.3622C237.489 98.4167 236.176 97.8989 234.816 97.9223C233.457 97.9458 232.162 98.5086 231.216 99.4873Z" fill="#EBEBEB"/>
<path d="M241.541 234.859C241.541 234.94 190.061 235 126.579 235C63.096 235 11.6053 234.94 11.6053 234.859C11.6053 234.777 63.0689 234.717 126.579 234.717C190.088 234.717 241.541 234.782 241.541 234.859Z" fill="#263238"/>
<path d="M216.504 234.462L139.417 234.418C134.965 234.415 130.695 232.641 127.548 229.485C124.4 226.329 122.632 222.05 122.632 217.588L122.67 23.9444C122.68 19.4789 124.457 15.1997 127.612 12.0456C130.767 8.89155 135.042 7.12023 139.499 7.12024L216.586 7.16919C221.038 7.17208 225.308 8.94647 228.455 12.1023C231.603 15.2582 233.371 19.5372 233.371 23.9988L233.333 217.643C233.333 219.855 232.897 222.046 232.051 224.089C231.205 226.132 229.964 227.988 228.401 229.551C226.838 231.113 224.982 232.351 222.941 233.194C220.899 234.036 218.712 234.467 216.504 234.462Z" fill="#455A64"/>
<path d="M216.477 13.9957H201.532C200.547 14.0186 199.611 14.4324 198.93 15.1464C198.249 15.8603 197.878 16.816 197.9 17.8033V20.5231C197.922 21.5104 197.552 22.4661 196.871 23.18C196.19 23.894 195.254 24.3078 194.268 24.3307H165.133C164.148 24.3064 163.214 23.8919 162.534 23.1781C161.854 22.4643 161.485 21.5095 161.507 20.5231V17.8033C161.528 16.816 161.158 15.8603 160.477 15.1464C159.796 14.4324 158.86 14.0186 157.875 13.9957H139.537C136.424 13.9928 133.437 15.2269 131.231 17.4273C129.024 19.6277 127.779 22.615 127.767 25.734L127.729 214.765C127.735 217.887 128.976 220.879 131.181 223.084C133.385 225.29 136.373 226.529 139.488 226.531L216.428 226.574C217.973 226.575 219.503 226.271 220.93 225.679C222.358 225.087 223.655 224.22 224.748 223.126C225.841 222.032 226.708 220.733 227.3 219.303C227.892 217.873 228.197 216.34 228.197 214.793L228.23 25.7612C228.226 22.6403 226.986 19.6485 224.782 17.4427C222.579 15.2369 219.592 13.9972 216.477 13.9957Z" fill="white"/>
<path d="M228.225 53.7254V25.5654C228.169 22.4795 226.907 19.5386 224.711 17.375C222.514 15.2115 219.557 13.9981 216.477 13.9957H201.532C201.044 14.0063 200.563 14.1133 200.116 14.3104C199.669 14.5076 199.265 14.7912 198.928 15.1448C198.591 15.4985 198.326 15.9153 198.15 16.3715C197.974 16.8277 197.889 17.3143 197.9 17.8033V20.5231C197.922 21.5104 197.552 22.4661 196.871 23.18C196.19 23.894 195.254 24.3078 194.268 24.3307H165.133C164.149 24.3064 163.214 23.8919 162.534 23.1781C161.854 22.4643 161.485 21.5095 161.507 20.5231V17.8033C161.528 16.816 161.158 15.8603 160.477 15.1464C159.796 14.4324 158.86 14.0186 157.875 13.9957H139.537C136.424 13.9928 133.437 15.2269 131.231 17.4273C129.024 19.6277 127.779 22.615 127.768 25.734V53.8124H228.225V53.7254Z" fill="#EBEBEB"/>
<path d="M148.255 91.921C154.98 91.921 160.432 86.4708 160.432 79.7476C160.432 73.0243 154.98 67.5741 148.255 67.5741C141.53 67.5741 136.079 73.0243 136.079 79.7476C136.079 86.4708 141.53 91.921 148.255 91.921Z" fill="#E0E0E0"/>
<path d="M142.566 82.7937L145.758 82.5217L153.543 83.8381L154.46 89.7072L154.33 90.3926C152.576 91.3843 150.606 91.9274 148.593 91.9739C146.579 92.0204 144.586 91.5688 142.789 90.6591L142.566 82.7937Z" fill="#455A64"/>
<path d="M151.876 83.7455C152.648 83.6325 153.436 83.7394 154.15 84.054C154.865 84.3685 155.476 84.878 155.915 85.5242C156.443 86.2622 156.926 87.0305 157.364 87.8251C156.094 89.2067 155.063 90.2566 153.304 90.8712L151.876 83.7455Z" fill="#455A64"/>
<path d="M142.566 82.7937C142.566 82.7937 140.46 83.0548 139.645 84.8552C138.831 86.6557 138.641 87.2159 138.641 87.2159C139.727 88.5323 141.116 90.088 142.816 90.67C142.816 90.67 143.201 86.1335 143.25 84.8552C143.31 83.4736 143.364 82.7556 142.566 82.7937Z" fill="#455A64"/>
<path d="M144.488 71.2621C145.018 70.5811 145.695 70.0282 146.467 69.6441C147.239 69.26 148.088 69.0545 148.95 69.0428C149.691 69.0427 150.427 69.1753 151.122 69.4345C151.853 69.608 152.499 70.0359 152.946 70.642C153.499 71.3547 153.862 72.1973 153.999 73.0898C154.126 74.0031 154.17 74.9263 154.129 75.8476C154.084 76.7755 153.786 77.6731 153.266 78.4422L150.926 78.8447C149.636 78.9479 148.338 78.8784 147.066 78.638C145.781 78.3907 144.645 77.6437 143.907 76.5601C142.968 75.0317 143.359 72.6546 144.488 71.2621Z" fill="#263238"/>
<path d="M142.229 78.0341C142.253 77.7689 142.337 77.5126 142.474 77.2845C142.612 77.0565 142.799 76.8627 143.022 76.7178C143.25 76.5803 143.516 76.5189 143.781 76.5424C144.047 76.5658 144.298 76.6729 144.499 76.8484L144.868 77.2835C145.153 77.4154 145.389 77.633 145.545 77.9059C145.701 78.1789 145.767 78.4937 145.736 78.8065C145.696 79.1197 145.565 79.4143 145.361 79.6547C145.157 79.8951 144.887 80.071 144.585 80.161C144.283 80.2468 143.965 80.2533 143.659 80.18C143.354 80.1066 143.073 79.9558 142.843 79.7421C142.617 79.5235 142.444 79.2558 142.338 78.9596C142.231 78.6635 142.194 78.3469 142.229 78.0341Z" fill="#263238"/>
<path d="M142.691 79.6334C142.603 79.4957 142.559 79.3343 142.566 79.1711C142.644 78.7751 142.832 78.4093 143.109 78.1158C143.371 77.8075 143.69 77.5527 144.048 77.3652C144.319 77.2183 144.509 77.1639 144.504 77.1476C144.331 77.1603 144.162 77.2104 144.01 77.2945C143.627 77.4649 143.289 77.7219 143.022 78.0451C142.872 78.209 142.744 78.3919 142.642 78.589C142.553 78.7574 142.501 78.9429 142.49 79.133C142.488 79.2637 142.523 79.3923 142.593 79.5029C142.642 79.6116 142.691 79.666 142.691 79.6334Z" fill="#455A64"/>
<path d="M150.904 83.3267V81.1509C150.904 81.1509 152.81 80.9388 153.342 78.491C153.592 76.872 153.69 75.233 153.635 73.5956C153.635 72.1106 152.359 70.0871 150.524 70.0817L149.71 69.9838L146.589 71.224C146.372 71.2359 146.167 71.3283 146.015 71.4832C145.862 71.638 145.773 71.8442 145.763 72.0616L145.671 82.5108L147.099 84.5179C147.36 84.8724 147.726 85.1361 148.144 85.2718C148.563 85.4075 149.013 85.4086 149.432 85.2748C149.851 85.141 150.218 84.8791 150.481 84.5258C150.744 84.1725 150.89 83.7456 150.899 83.3049L150.904 83.3267Z" fill="#FFBE9D"/>
<path d="M149.661 77.9254C149.678 77.7996 149.742 77.6848 149.84 77.6045C149.93 77.5295 150.041 77.4853 150.157 77.4785C150.273 77.4716 150.389 77.5025 150.486 77.5664C150.586 77.6444 150.664 77.7472 150.711 77.8646C150.759 77.982 150.775 78.1099 150.758 78.2355C150.703 78.3111 150.634 78.3745 150.553 78.4213C150.473 78.4682 150.383 78.4975 150.291 78.5075H150.204C150.132 78.5093 150.06 78.4968 149.993 78.4707C149.926 78.4445 149.865 78.4052 149.813 78.3551C149.758 78.2988 149.716 78.2312 149.69 78.157C149.664 78.0828 149.654 78.0038 149.661 77.9254Z" fill="#EB996E"/>
<path d="M152.5 75.3144C152.498 75.3971 152.462 75.4754 152.402 75.5324C152.343 75.5894 152.263 75.6205 152.18 75.619C152.139 75.6198 152.099 75.6124 152.061 75.5975C152.023 75.5826 151.989 75.5604 151.96 75.5321C151.93 75.5038 151.907 75.47 151.891 75.4327C151.875 75.3953 151.866 75.3551 151.865 75.3144C151.869 75.2312 151.906 75.1529 151.967 75.0961C152.027 75.0392 152.108 75.0083 152.191 75.0098C152.231 75.0091 152.271 75.0164 152.309 75.0314C152.346 75.0464 152.381 75.0687 152.409 75.0971C152.438 75.1255 152.461 75.1593 152.477 75.1966C152.492 75.2339 152.5 75.274 152.5 75.3144Z" fill="#263238"/>
<path d="M153.022 74.5312C152.978 74.5693 152.745 74.3789 152.408 74.3626C152.072 74.3463 151.806 74.504 151.773 74.4605C151.74 74.417 151.8 74.368 151.914 74.2919C152.068 74.2 152.246 74.1564 152.424 74.1668C152.601 74.1738 152.771 74.2387 152.908 74.3517C153.005 74.4387 153.038 74.5149 153.022 74.5312Z" fill="#263238"/>
<path d="M150.877 77.1095C151.055 77.0676 151.237 77.0457 151.42 77.0442C151.507 77.0442 151.594 77.0442 151.61 76.968C151.622 76.8786 151.607 76.7876 151.567 76.707L151.344 76.0325C151.137 75.4569 150.975 74.8658 150.861 74.2646C151.115 74.8218 151.323 75.3984 151.485 75.9889C151.561 76.2228 151.626 76.4513 151.697 76.6689C151.743 76.7772 151.752 76.8974 151.724 77.0116C151.691 77.0699 151.636 77.1129 151.572 77.1312C151.523 77.1362 151.474 77.1362 151.425 77.1312C151.243 77.1489 151.058 77.1416 150.877 77.1095Z" fill="#263238"/>
<path d="M150.894 81.1564C149.728 81.1039 148.6 80.7272 147.636 80.0685C147.636 80.0685 148.424 81.8254 150.894 81.7329V81.1564Z" fill="#EB996E"/>
<path d="M149.862 77.2944C149.922 77.2944 149.9 77.6643 150.204 77.9417C150.508 78.2191 150.899 78.2028 150.899 78.2518C150.899 78.3007 150.807 78.3225 150.644 78.317C150.427 78.3072 150.22 78.2227 150.058 78.0777C149.904 77.9364 149.811 77.7418 149.797 77.5338C149.791 77.376 149.84 77.289 149.862 77.2944Z" fill="#263238"/>
<path d="M152.951 73.2474C152.891 73.329 152.631 73.2474 152.327 73.2474C152.023 73.2474 151.784 73.3236 151.702 73.2474C151.621 73.1713 151.702 73.1277 151.822 73.0516C151.972 72.9573 152.144 72.9064 152.321 72.9047C152.499 72.9 152.675 72.9473 152.826 73.0407C152.94 73.1386 152.978 73.2093 152.951 73.2474Z" fill="#263238"/>
<path d="M148.766 75.3144C148.764 75.3977 148.795 75.4783 148.852 75.5393C148.908 75.6002 148.987 75.6366 149.07 75.6408C149.11 75.6445 149.151 75.6401 149.189 75.6278C149.228 75.6155 149.264 75.5956 149.295 75.5693C149.325 75.5429 149.351 75.5106 149.369 75.4743C149.387 75.4381 149.398 75.3985 149.401 75.3579C149.401 75.2756 149.369 75.1963 149.313 75.1366C149.256 75.0769 149.179 75.0412 149.097 75.037C149.057 75.0325 149.016 75.0362 148.977 75.0479C148.939 75.0595 148.903 75.0789 148.872 75.1048C148.841 75.1307 148.816 75.1627 148.797 75.1987C148.779 75.2347 148.768 75.2741 148.766 75.3144Z" fill="#263238"/>
<path d="M148.353 74.4115C148.391 74.4551 148.635 74.281 148.977 74.2864C149.319 74.2919 149.563 74.4659 149.601 74.4279C149.639 74.3898 149.601 74.3354 149.471 74.2538C149.326 74.1474 149.151 74.0902 148.972 74.0906C148.796 74.0851 148.622 74.1366 148.478 74.2375C148.369 74.3191 148.331 74.3898 148.353 74.4115Z" fill="#263238"/>
<path d="M148.157 73.6827C148.223 73.7642 148.489 73.6827 148.803 73.6827C149.118 73.6827 149.384 73.7479 149.449 73.6827C149.515 73.6174 149.449 73.563 149.319 73.4868C149.161 73.3941 148.981 73.3452 148.798 73.3452C148.615 73.3452 148.435 73.3941 148.277 73.4868C148.163 73.563 148.125 73.6391 148.157 73.6827Z" fill="#263238"/>
<path d="M146.176 76.2337C146.176 76.0488 146.002 75.6027 145.818 75.5647C145.34 75.4613 144.466 75.4559 144.39 76.6852C144.287 78.366 146.019 78.1212 146.019 78.0722C146.019 78.0233 146.143 76.8647 146.176 76.2337Z" fill="#FFBE9D"/>
<path d="M145.573 77.4304C145.573 77.4304 145.546 77.4304 145.492 77.4685C145.458 77.4831 145.421 77.4907 145.383 77.4907C145.346 77.4907 145.309 77.4831 145.275 77.4685C145.17 77.3928 145.087 77.2904 145.034 77.1719C144.982 77.0533 144.962 76.9228 144.976 76.794C144.983 76.65 145.02 76.509 145.085 76.3806C145.104 76.3293 145.136 76.2833 145.176 76.2465C145.217 76.2096 145.266 76.1829 145.318 76.1684C145.353 76.161 145.389 76.1662 145.42 76.1832C145.451 76.2002 145.474 76.2278 145.487 76.2609C145.49 76.288 145.49 76.3154 145.487 76.3425C145.487 76.3425 145.525 76.3425 145.514 76.25C145.507 76.2079 145.486 76.1695 145.454 76.1412C145.433 76.1211 145.409 76.1058 145.381 76.0964C145.354 76.087 145.325 76.0837 145.297 76.0868C145.227 76.0958 145.161 76.1225 145.105 76.1644C145.049 76.2064 145.005 76.2621 144.976 76.3262C144.896 76.4673 144.851 76.6261 144.846 76.7885C144.828 76.9381 144.854 77.0898 144.922 77.2243C144.989 77.3589 145.095 77.4704 145.226 77.5446C145.271 77.5597 145.318 77.565 145.365 77.5603C145.412 77.5556 145.457 77.541 145.497 77.5174C145.573 77.4902 145.573 77.4358 145.573 77.4304Z" fill="#EB996E"/>
<path d="M145.753 75.5701L146.176 76.0107C148.022 74.2483 151.632 69.8261 151.431 70.0872C150.588 69.7757 149.682 69.6785 148.793 69.8043C147.419 70.0382 144.819 70.7236 144.857 72.3391C144.938 73.4651 145.242 74.5636 145.753 75.5701Z" fill="#263238"/>
<path d="M143.31 75.2002C143.31 75.2002 143.31 75.1621 143.31 75.1023C143.342 75.011 143.38 74.9219 143.424 74.8358C143.598 74.524 143.839 74.2546 144.129 74.047C144.559 73.7397 145.039 73.508 145.546 73.3617C146.089 73.1822 146.74 73.0407 147.365 72.7742C148.433 72.3222 149.397 71.6558 150.199 70.816C150.44 70.5607 150.666 70.292 150.877 70.011L151.045 69.7771C151.064 69.749 151.086 69.7234 151.111 69.7009L151.062 69.788C151.024 69.8424 150.975 69.9294 150.904 70.0327C150.702 70.3226 150.481 70.5988 150.242 70.8595C149.885 71.2442 149.492 71.5939 149.069 71.9039C148.552 72.2851 147.99 72.6029 147.397 72.8504C146.799 73.0802 146.188 73.2763 145.568 73.4378C145.068 73.5776 144.594 73.8001 144.167 74.096C143.879 74.2946 143.637 74.5524 143.456 74.8521C143.399 74.9643 143.35 75.0807 143.31 75.2002Z" fill="#455A64"/>
<path d="M143.798 75.4613C143.794 75.3366 143.816 75.2124 143.863 75.0969C143.989 74.7747 144.208 74.498 144.493 74.3027C144.921 74.0292 145.399 73.8442 145.899 73.7588C146.499 73.6442 147.083 73.4617 147.642 73.2149C148.197 72.9619 148.719 72.6403 149.194 72.2575C149.589 71.9432 149.953 71.5916 150.28 71.2077C150.496 70.9496 150.693 70.677 150.872 70.3918C150.932 70.2993 150.98 70.2177 151.013 70.1579C151.03 70.1286 151.05 70.1012 151.073 70.0763C151.061 70.1067 151.047 70.1358 151.029 70.1633L150.899 70.4081C150.732 70.7038 150.54 70.9842 150.324 71.2458C150.003 71.6474 149.639 72.0122 149.238 72.3337C148.758 72.7244 148.231 73.0533 147.669 73.3128C147.104 73.5618 146.512 73.7443 145.905 73.8567C145.413 73.949 144.943 74.1336 144.52 74.4007C144.239 74.5845 144.018 74.8475 143.885 75.1567C143.847 75.2555 143.818 75.3575 143.798 75.4613Z" fill="#455A64"/>
<path d="M142.816 90.6591C142.736 89.5872 142.736 88.5109 142.816 87.439C142.888 88.5111 142.888 89.587 142.816 90.6591Z" fill="#263238"/>
<path d="M154.335 90.4306C154.321 90.2496 154.321 90.0677 154.335 89.8867C154.368 89.433 154.351 88.977 154.286 88.5268C154.202 88.0775 154.071 87.6381 153.895 87.2159C153.813 87.0412 153.748 86.8591 153.7 86.672C153.806 86.8308 153.895 87.0003 153.966 87.1779C154.167 87.5974 154.311 88.0419 154.395 88.4996C154.46 88.9597 154.46 89.4266 154.395 89.8867C154.398 90.0698 154.378 90.2526 154.335 90.4306Z" fill="#263238"/>
<path d="M212.932 95.2065H171.43C170.441 95.205 169.494 94.8109 168.795 94.1104C168.095 93.4099 167.702 92.4602 167.701 91.4696V74.009L163.124 69.9403H212.932C213.425 69.9367 213.913 70.0309 214.369 70.2174C214.825 70.4039 215.239 70.6791 215.589 71.0271C215.938 71.375 216.215 71.7888 216.404 72.2446C216.593 72.7004 216.689 73.1891 216.689 73.6826V91.4696C216.688 91.9624 216.59 92.4502 216.401 92.9051C216.211 93.3599 215.934 93.7728 215.585 94.12C215.236 94.4672 214.822 94.7419 214.367 94.9284C213.912 95.1148 213.424 95.2093 212.932 95.2065Z" fill="#EBEBEB"/>
<path d="M210.087 98.035C208.615 98.1751 207.136 98.2223 205.658 98.1764C204.181 98.2222 202.704 98.175 201.233 98.035C202.704 97.895 204.181 97.8478 205.658 97.8936C207.136 97.8477 208.615 97.8949 210.087 98.035Z" fill="#E0E0E0"/>
<path d="M211.917 98.3831C211.898 98.3828 211.88 98.3788 211.864 98.3713C211.847 98.3639 211.832 98.353 211.819 98.3395L210.961 97.442C210.937 97.4166 210.923 97.3824 210.923 97.3468C210.923 97.3112 210.937 97.2771 210.961 97.2517C210.974 97.2386 210.988 97.2283 211.005 97.2212C211.021 97.2141 211.039 97.2104 211.056 97.2104C211.074 97.2104 211.092 97.2141 211.108 97.2212C211.124 97.2283 211.139 97.2386 211.151 97.2517L211.911 98.0458L213.578 96.3487C213.59 96.3357 213.605 96.3253 213.621 96.3182C213.638 96.3112 213.655 96.3075 213.673 96.3075C213.691 96.3075 213.708 96.3112 213.725 96.3182C213.741 96.3253 213.756 96.3357 213.768 96.3487C213.793 96.3741 213.807 96.4083 213.807 96.4439C213.807 96.4795 213.793 96.5137 213.768 96.5391L212.004 98.3395C211.98 98.3629 211.95 98.3781 211.917 98.3831Z" fill="#FFB703"/>
<path d="M213.138 98.3559H212.981C212.945 98.3559 212.91 98.3416 212.885 98.3161C212.86 98.2906 212.845 98.256 212.845 98.2199C212.849 98.1842 212.865 98.151 212.891 98.1261C212.917 98.1013 212.951 98.0863 212.986 98.084H213.084L214.805 96.327C214.818 96.3139 214.833 96.3034 214.85 96.2962C214.866 96.2891 214.884 96.2854 214.903 96.2854C214.921 96.2854 214.939 96.2891 214.956 96.2962C214.973 96.3034 214.988 96.3139 215 96.327C215.025 96.3524 215.039 96.3866 215.039 96.4222C215.039 96.4578 215.025 96.492 215 96.5174L213.236 98.3124C213.224 98.3265 213.209 98.3377 213.192 98.3452C213.175 98.3527 213.157 98.3564 213.138 98.3559Z" fill="#FFB703"/>
<path d="M210.087 166.392C208.615 166.533 207.136 166.58 205.658 166.534C204.181 166.58 202.704 166.532 201.233 166.392C202.704 166.252 204.181 166.205 205.658 166.251C207.136 166.205 208.615 166.252 210.087 166.392Z" fill="#E0E0E0"/>
<path d="M211.917 166.741C211.896 166.743 211.875 166.74 211.855 166.732C211.835 166.725 211.817 166.713 211.803 166.697L210.945 165.8C210.93 165.787 210.918 165.772 210.909 165.755C210.9 165.737 210.895 165.718 210.894 165.699C210.894 165.679 210.897 165.66 210.904 165.642C210.912 165.624 210.923 165.608 210.937 165.594C210.951 165.581 210.968 165.571 210.986 165.565C211.004 165.558 211.024 165.556 211.043 165.558C211.063 165.56 211.081 165.566 211.098 165.576C211.115 165.585 211.129 165.599 211.141 165.615L211.901 166.409L213.567 164.712C213.579 164.699 213.594 164.688 213.61 164.681C213.627 164.674 213.644 164.67 213.662 164.67C213.68 164.67 213.698 164.674 213.714 164.681C213.73 164.688 213.745 164.699 213.757 164.712C213.782 164.737 213.796 164.771 213.796 164.807C213.796 164.842 213.782 164.877 213.757 164.902L212.015 166.697C211.988 166.723 211.954 166.738 211.917 166.741Z" fill="#FFB703"/>
<path d="M213.138 166.697H212.981C212.944 166.696 212.91 166.68 212.885 166.654C212.859 166.627 212.845 166.592 212.845 166.556C212.845 166.537 212.849 166.52 212.856 166.503C212.863 166.486 212.874 166.471 212.887 166.459C212.9 166.447 212.916 166.438 212.933 166.432C212.95 166.426 212.968 166.424 212.986 166.425H213.084L214.805 164.668C214.818 164.655 214.833 164.644 214.85 164.637C214.866 164.63 214.884 164.626 214.903 164.626C214.921 164.626 214.939 164.63 214.956 164.637C214.973 164.644 214.988 164.655 215 164.668C215.025 164.694 215.039 164.728 215.039 164.763C215.039 164.799 215.025 164.833 215 164.858L213.236 166.653C213.224 166.668 213.209 166.679 213.192 166.686C213.175 166.694 213.157 166.697 213.138 166.697Z" fill="#FFB703"/>
<path d="M212.4 74.9392C212.4 75.0153 203.34 75.0806 192.162 75.0806C180.984 75.0806 171.929 75.0153 171.929 74.9392C171.929 74.863 180.984 74.7977 192.162 74.7977C203.34 74.7977 212.4 74.8576 212.4 74.9392Z" fill="white"/>
<path d="M212.4 77.9145C212.4 77.9961 203.34 78.0559 192.162 78.0559C180.984 78.0559 171.929 77.9961 171.929 77.9145C171.929 77.8329 180.984 77.7731 192.162 77.7731C203.34 77.7731 212.4 77.8383 212.4 77.9145Z" fill="white"/>
<path d="M212.4 80.8953C212.4 80.9715 203.34 81.0368 192.162 81.0368C180.984 81.0368 171.929 80.9715 171.929 80.8953C171.929 80.8192 180.984 80.7539 192.162 80.7539C203.34 80.7539 212.4 80.8192 212.4 80.8953Z" fill="white"/>
<path d="M148.255 167.839C154.98 167.839 160.432 162.389 160.432 155.666C160.432 148.943 154.98 143.492 148.255 143.492C141.53 143.492 136.079 148.943 136.079 155.666C136.079 162.389 141.53 167.839 148.255 167.839Z" fill="#E0E0E0"/>
<path d="M142.566 158.712L145.758 158.44L153.543 159.756L154.46 165.609L154.33 166.289C152.577 167.282 150.606 167.826 148.593 167.873C146.579 167.919 144.586 167.467 142.789 166.556L142.566 158.696" fill="#455A64"/>
<path d="M151.876 159.658C152.648 159.547 153.436 159.654 154.15 159.969C154.864 160.283 155.475 160.792 155.915 161.437C156.443 162.176 156.927 162.946 157.364 163.743C156.094 165.125 155.063 166.175 153.304 166.784L151.876 159.658Z" fill="#455A64"/>
<path d="M142.566 158.712C142.566 158.712 140.46 158.968 139.645 160.768C138.831 162.568 138.641 163.134 138.641 163.134C139.727 164.445 141.116 166.001 142.816 166.583C142.816 166.583 143.201 162.052 143.25 160.768C143.31 159.365 143.364 158.668 142.566 158.712Z" fill="#455A64"/>
<path d="M144.488 147.18C145.017 146.498 145.694 145.945 146.466 145.561C147.239 145.176 148.088 144.972 148.95 144.961C149.691 144.957 150.427 145.088 151.122 145.347C151.851 145.525 152.496 145.952 152.946 146.555C153.498 147.268 153.86 148.11 153.999 149.003C154.126 149.918 154.17 150.843 154.129 151.766C154.085 152.692 153.787 153.588 153.266 154.355L150.926 154.763C149.636 154.863 148.338 154.794 147.066 154.556C145.781 154.309 144.645 153.562 143.907 152.478C142.968 150.923 143.359 148.567 144.488 147.18Z" fill="#263238"/>
<path d="M142.229 153.974C142.252 153.709 142.336 153.452 142.473 153.224C142.611 152.996 142.798 152.802 143.022 152.658C143.249 152.519 143.515 152.456 143.781 152.478C144.046 152.501 144.298 152.608 144.498 152.783L144.868 153.224C145.153 153.355 145.39 153.572 145.546 153.845C145.702 154.118 145.768 154.434 145.736 154.747C145.692 155.058 145.56 155.351 145.357 155.591C145.153 155.83 144.885 156.007 144.585 156.101C144.283 156.186 143.964 156.191 143.659 156.117C143.354 156.042 143.073 155.891 142.843 155.677C142.617 155.459 142.444 155.192 142.338 154.897C142.231 154.602 142.194 154.286 142.229 153.974Z" fill="#263238"/>
<path d="M142.691 155.552C142.604 155.411 142.56 155.249 142.566 155.084C142.644 154.689 142.832 154.325 143.109 154.034C143.369 153.724 143.688 153.469 144.048 153.283C144.319 153.136 144.509 153.082 144.504 153.06C144.331 153.076 144.163 153.126 144.01 153.207C143.629 153.381 143.292 153.637 143.022 153.958C142.871 154.133 142.744 154.327 142.642 154.534C142.552 154.702 142.501 154.888 142.49 155.078C142.488 155.209 142.524 155.337 142.593 155.448C142.642 155.53 142.691 155.557 142.691 155.552Z" fill="#455A64"/>
<path d="M150.915 159.441V157.265C150.915 157.265 152.821 157.053 153.353 154.611C153.602 152.991 153.701 151.353 153.646 149.715C153.646 148.23 152.37 146.207 150.535 146.201L149.721 146.109L146.599 147.349C146.382 147.36 146.177 147.452 146.024 147.607C145.871 147.762 145.782 147.969 145.774 148.187L145.682 158.63L147.11 160.637C147.371 160.992 147.737 161.256 148.155 161.391C148.574 161.527 149.024 161.528 149.443 161.394C149.862 161.261 150.229 160.999 150.492 160.645C150.755 160.292 150.901 159.865 150.91 159.425L150.915 159.441Z" fill="#FFBE9D"/>
<path d="M149.661 153.844C149.678 153.718 149.742 153.603 149.84 153.523C149.93 153.448 150.041 153.404 150.157 153.397C150.273 153.39 150.389 153.421 150.486 153.485C150.586 153.563 150.664 153.665 150.711 153.783C150.759 153.9 150.775 154.028 150.758 154.154C150.703 154.229 150.633 154.291 150.553 154.337C150.472 154.383 150.383 154.411 150.291 154.42H150.204C150.059 154.417 149.92 154.361 149.813 154.262C149.758 154.209 149.715 154.143 149.689 154.071C149.662 153.998 149.653 153.92 149.661 153.844Z" fill="#EB996E"/>
<path d="M152.5 151.467C152.49 151.544 152.452 151.615 152.394 151.666C152.336 151.717 152.261 151.746 152.183 151.746C152.105 151.746 152.03 151.717 151.972 151.666C151.913 151.615 151.875 151.544 151.865 151.467C151.869 151.383 151.906 151.305 151.967 151.248C152.027 151.191 152.108 151.16 152.191 151.162C152.231 151.161 152.271 151.169 152.309 151.184C152.346 151.199 152.381 151.221 152.409 151.249C152.438 151.278 152.461 151.311 152.477 151.349C152.492 151.386 152.5 151.426 152.5 151.467Z" fill="#263238"/>
<path d="M153.022 150.656C152.978 150.694 152.745 150.504 152.408 150.487C152.072 150.471 151.806 150.623 151.773 150.58C151.74 150.536 151.8 150.487 151.914 150.417C152.066 150.32 152.245 150.276 152.424 150.292C152.601 150.299 152.771 150.364 152.908 150.477C153.005 150.564 153.038 150.64 153.022 150.656Z" fill="#263238"/>
<path d="M150.877 153.234C151.055 153.192 151.237 153.168 151.42 153.164C151.507 153.164 151.594 153.164 151.61 153.087C151.622 152.998 151.607 152.907 151.567 152.826C151.496 152.614 151.42 152.391 151.344 152.152C151.138 151.578 150.976 150.989 150.861 150.39C151.115 150.945 151.324 151.519 151.485 152.108C151.561 152.348 151.626 152.571 151.697 152.788C151.743 152.897 151.752 153.017 151.724 153.131C151.709 153.161 151.688 153.188 151.662 153.208C151.635 153.229 151.605 153.243 151.572 153.251C151.523 153.258 151.474 153.258 151.425 153.251C151.243 153.27 151.058 153.265 150.877 153.234Z" fill="#263238"/>
<path d="M150.894 157.276C149.731 157.23 148.604 156.863 147.636 156.215C147.636 156.215 148.424 157.972 150.894 157.88V157.276Z" fill="#EB996E"/>
<path d="M149.862 153.414C149.922 153.414 149.9 153.784 150.204 154.067C150.508 154.35 150.899 154.328 150.899 154.377C150.899 154.426 150.807 154.442 150.644 154.442C150.426 154.432 150.218 154.346 150.058 154.197C149.903 154.057 149.809 153.862 149.797 153.653C149.791 153.501 149.84 153.414 149.862 153.414Z" fill="#263238"/>
<path d="M152.951 149.372C152.891 149.454 152.631 149.372 152.327 149.372C152.023 149.372 151.784 149.449 151.702 149.372C151.621 149.296 151.702 149.253 151.822 149.177C151.97 149.08 152.144 149.029 152.321 149.03C152.499 149.022 152.676 149.07 152.826 149.166C152.94 149.253 152.978 149.334 152.951 149.372Z" fill="#263238"/>
<path d="M148.766 151.423C148.764 151.506 148.795 151.586 148.852 151.646C148.909 151.706 148.987 151.741 149.07 151.744C149.11 151.748 149.15 151.745 149.189 151.733C149.227 151.721 149.263 151.702 149.294 151.676C149.325 151.65 149.351 151.618 149.369 151.582C149.387 151.546 149.398 151.507 149.401 151.467C149.402 151.383 149.371 151.303 149.315 151.242C149.258 151.181 149.18 151.144 149.097 151.14C149.056 151.136 149.016 151.141 148.977 151.153C148.938 151.165 148.903 151.185 148.872 151.212C148.841 151.238 148.816 151.27 148.797 151.307C148.779 151.343 148.768 151.383 148.766 151.423Z" fill="#263238"/>
<path d="M148.353 150.531C148.391 150.575 148.635 150.4 148.977 150.411C149.319 150.422 149.563 150.591 149.601 150.547C149.639 150.504 149.601 150.455 149.471 150.373C149.325 150.269 149.151 150.212 148.972 150.21C148.795 150.209 148.623 150.262 148.478 150.362C148.369 150.439 148.331 150.515 148.353 150.531Z" fill="#263238"/>
<path d="M148.157 149.802C148.223 149.878 148.489 149.802 148.803 149.802C149.118 149.802 149.384 149.862 149.449 149.802C149.515 149.742 149.449 149.688 149.319 149.612C149.161 149.519 148.981 149.47 148.798 149.47C148.615 149.47 148.435 149.519 148.277 149.612C148.163 149.682 148.125 149.764 148.157 149.802Z" fill="#263238"/>
<path d="M146.176 152.146C146.176 151.962 146.002 151.521 145.818 151.483C145.34 151.38 144.466 151.369 144.39 152.598C144.287 154.279 146.019 154.039 146.019 153.99C146.019 153.941 146.143 152.783 146.176 152.146Z" fill="#FFBE9D"/>
<path d="M145.574 153.349C145.574 153.349 145.546 153.349 145.492 153.387C145.422 153.414 145.345 153.414 145.275 153.387C145.17 153.312 145.087 153.211 145.035 153.093C144.982 152.975 144.962 152.846 144.976 152.718C144.982 152.574 145.019 152.433 145.085 152.304C145.104 152.253 145.136 152.207 145.176 152.17C145.217 152.133 145.266 152.107 145.318 152.092C145.352 152.085 145.387 152.09 145.418 152.106C145.448 152.122 145.473 152.148 145.487 152.179C145.491 152.208 145.491 152.237 145.487 152.266C145.487 152.266 145.525 152.239 145.514 152.168C145.506 152.127 145.485 152.089 145.454 152.06C145.432 152.041 145.407 152.027 145.38 152.019C145.353 152.011 145.325 152.008 145.297 152.011C145.227 152.018 145.16 152.045 145.104 152.087C145.048 152.129 145.004 152.185 144.976 152.25C144.895 152.391 144.851 152.55 144.846 152.712C144.828 152.861 144.855 153.012 144.922 153.145C144.99 153.279 145.096 153.39 145.226 153.463C145.268 153.484 145.315 153.494 145.362 153.494C145.409 153.494 145.455 153.484 145.498 153.463C145.574 153.387 145.574 153.349 145.574 153.349Z" fill="#EB996E"/>
<path d="M145.753 151.467L146.176 151.913C148.022 150.145 151.632 145.723 151.431 145.989C150.589 145.674 149.682 145.574 148.793 145.701C147.419 145.935 144.819 146.62 144.857 148.241C144.938 149.365 145.243 150.462 145.753 151.467Z" fill="#263238"/>
<path d="M143.31 151.113C143.31 151.113 143.31 151.08 143.31 151.015C143.343 150.926 143.381 150.839 143.424 150.754C143.599 150.441 143.84 150.17 144.129 149.96C144.569 149.655 145.057 149.429 145.573 149.291C146.116 149.106 146.768 148.964 147.392 148.698C147.98 148.453 148.537 148.141 149.053 147.768C149.474 147.463 149.867 147.121 150.226 146.745C150.53 146.419 150.769 146.136 150.904 145.94C150.969 145.842 151.029 145.766 151.073 145.706C151.116 145.646 151.132 145.625 151.138 145.63L151.089 145.717L150.931 145.956C150.732 146.248 150.51 146.525 150.269 146.783C149.912 147.17 149.52 147.521 149.097 147.833C148.576 148.203 148.012 148.51 147.419 148.747C146.789 149.013 146.149 149.155 145.59 149.334C145.09 149.472 144.616 149.693 144.189 149.987C143.901 150.188 143.658 150.447 143.478 150.749C143.414 150.866 143.358 150.988 143.31 151.113Z" fill="#455A64"/>
<path d="M143.798 151.38C143.794 151.253 143.816 151.127 143.863 151.01C143.988 150.688 144.208 150.413 144.493 150.221C144.921 149.947 145.399 149.762 145.899 149.677C146.498 149.56 147.082 149.377 147.642 149.133C148.197 148.88 148.719 148.558 149.194 148.176C149.848 147.651 150.41 147.021 150.856 146.31C150.915 146.212 150.964 146.136 150.997 146.071C151.014 146.044 151.034 146.018 151.056 145.995C151.045 146.025 151.03 146.054 151.013 146.082L150.883 146.326C150.716 146.622 150.523 146.902 150.307 147.164C149.986 147.566 149.622 147.93 149.222 148.252C148.743 148.643 148.215 148.97 147.653 149.226C147.086 149.472 146.495 149.654 145.888 149.769C145.395 149.857 144.925 150.042 144.504 150.313C144.219 150.494 143.998 150.758 143.869 151.069C143.836 151.17 143.812 151.274 143.798 151.38Z" fill="#455A64"/>
<path d="M142.816 166.572C142.736 165.502 142.736 164.427 142.816 163.357C142.888 164.428 142.888 165.502 142.816 166.572Z" fill="#263238"/>
<path d="M154.335 166.349C154.32 166.159 154.32 165.968 154.335 165.778C154.368 165.322 154.351 164.864 154.286 164.412C154.201 163.965 154.07 163.527 153.895 163.107C153.814 162.932 153.749 162.75 153.7 162.563C153.806 162.722 153.895 162.891 153.966 163.069C154.168 163.488 154.312 163.933 154.395 164.391C154.46 164.851 154.46 165.318 154.395 165.778C154.4 165.97 154.379 166.162 154.335 166.349Z" fill="#263238"/>
<path d="M212.932 162.824H171.43C170.44 162.823 169.492 162.428 168.793 161.726C168.093 161.024 167.701 160.073 167.701 159.082V149.922L163.124 145.853H212.932C213.921 145.854 214.869 146.249 215.568 146.949C216.267 147.65 216.66 148.599 216.662 149.59V159.082C216.662 160.073 216.269 161.024 215.57 161.726C214.87 162.428 213.922 162.823 212.932 162.824Z" fill="#EBEBEB"/>
<path d="M212.4 150.852C212.4 150.933 203.34 150.993 192.162 150.993C180.984 150.993 171.929 150.933 171.929 150.852C171.929 150.77 180.984 150.71 192.162 150.71C203.34 150.71 212.4 150.776 212.4 150.852Z" fill="white"/>
<path d="M212.4 153.833C212.4 153.909 203.34 153.974 192.162 153.974C180.984 153.974 171.929 153.909 171.929 153.833C171.929 153.757 180.984 153.691 192.162 153.691C203.34 153.691 212.4 153.757 212.4 153.833Z" fill="white"/>
<path d="M212.4 156.814C212.4 156.89 203.34 156.955 192.162 156.955C180.984 156.955 171.929 156.89 171.929 156.814C171.929 156.737 180.984 156.672 192.162 156.672C203.34 156.672 212.4 156.732 212.4 156.814Z" fill="white"/>
<path d="M212.4 83.8762C212.4 83.9523 203.34 84.0176 192.162 84.0176C180.984 84.0176 171.929 83.9523 171.929 83.8762C171.929 83.8 180.984 83.7347 192.162 83.7347C203.34 83.7347 212.4 83.7946 212.4 83.8762Z" fill="white"/>
<path d="M212.4 86.8515C212.4 86.9331 203.34 86.9929 192.162 86.9929C180.984 86.9929 171.929 86.9331 171.929 86.8515C171.929 86.7699 180.984 86.7101 192.162 86.7101C203.34 86.7101 212.4 86.7754 212.4 86.8515Z" fill="white"/>
<path d="M212.4 90.4306C212.4 90.5122 203.34 90.572 192.162 90.572C180.984 90.572 171.929 90.5122 171.929 90.4306C171.929 90.349 180.984 90.2892 192.162 90.2892C203.34 90.2892 212.4 90.3545 212.4 90.4306Z" fill="white"/>
<path d="M172.174 38.669C172.203 38.2463 172.354 37.8413 172.61 37.5037C172.865 37.1661 173.213 36.9106 173.612 36.7685C174.01 36.6264 174.441 36.6039 174.852 36.7038C175.263 36.8037 175.636 37.0217 175.925 37.3309L175.344 37.8748C175.224 37.7291 175.073 37.612 174.902 37.532C174.731 37.452 174.545 37.4112 174.356 37.4125C174.022 37.4125 173.702 37.5454 173.465 37.7821C173.229 38.0187 173.097 38.3397 173.097 38.6744C173.097 39.0091 173.229 39.3301 173.465 39.5667C173.702 39.8034 174.022 39.9364 174.356 39.9364C174.545 39.9377 174.732 39.8964 174.903 39.8154C175.074 39.7344 175.225 39.6159 175.344 39.4686L175.925 40.0125C175.636 40.3215 175.264 40.5394 174.853 40.6396C174.443 40.7397 174.012 40.7177 173.614 40.5762C173.216 40.4348 172.868 40.18 172.612 39.8432C172.356 39.5064 172.204 39.1021 172.174 38.6799V38.669Z" fill="#263238"/>
<path d="M179.535 38.9029V40.6381H178.688V39.0389C178.688 38.5493 178.46 38.3263 178.075 38.3263C177.689 38.3263 177.353 38.5874 177.353 39.1422V40.6381H176.473V36.466H177.353V37.9292C177.48 37.8066 177.631 37.7112 177.796 37.6485C177.961 37.5859 178.137 37.5574 178.314 37.5648C178.486 37.5578 178.657 37.5886 178.817 37.655C178.976 37.7214 179.118 37.8218 179.235 37.9493C179.351 38.0767 179.438 38.2281 179.49 38.3928C179.542 38.5575 179.557 38.7316 179.535 38.9029Z" fill="#263238"/>
<path d="M182.999 38.9138V40.6381H182.179V40.2628C182.077 40.4095 181.938 40.526 181.775 40.5997C181.613 40.6735 181.433 40.7018 181.256 40.6816C180.55 40.6816 180.132 40.29 180.132 39.7678C180.132 39.2456 180.507 38.8594 181.43 38.8594H182.125C182.125 38.4841 181.897 38.2665 181.43 38.2665C181.116 38.2633 180.81 38.3605 180.556 38.5439L180.241 37.9347C180.628 37.6833 181.082 37.5544 181.544 37.5648C182.488 37.5648 182.999 37.9945 182.999 38.9138ZM182.125 39.6807V39.3707H181.522C181.115 39.3707 180.979 39.523 180.979 39.7297C180.979 39.9364 181.164 40.0941 181.473 40.0941C181.612 40.1046 181.75 40.07 181.867 39.9955C181.984 39.921 182.075 39.8107 182.125 39.6807Z" fill="#263238"/>
<path d="M185.745 40.5021C185.531 40.6368 185.281 40.7032 185.029 40.6925C184.88 40.713 184.728 40.6994 184.585 40.6526C184.442 40.6058 184.311 40.527 184.203 40.4222C184.095 40.3175 184.012 40.1894 183.96 40.0478C183.909 39.9061 183.89 39.7546 183.905 39.6046V38.359H183.438V37.6845H183.905V36.9447H184.779V37.6845H185.534V38.359H184.779V39.5937C184.773 39.6455 184.778 39.6982 184.794 39.7479C184.81 39.7975 184.837 39.843 184.873 39.8809C184.909 39.9189 184.952 39.9485 185.001 39.9675C185.049 39.9864 185.102 39.9944 185.154 39.9908C185.281 39.9954 185.406 39.955 185.507 39.8766L185.745 40.5021Z" fill="#263238"/>
<path d="M201.233 44.7394C201.233 44.8155 192.005 44.8808 180.566 44.8808C169.128 44.8808 159.905 44.8155 159.905 44.7394C159.905 44.6632 169.134 44.5925 180.566 44.5925C191.999 44.5925 201.233 44.6578 201.233 44.7394Z" fill="#263238"/>
<path d="M219.544 38.669C220.075 38.669 220.505 38.2379 220.505 37.7062C220.505 37.1745 220.075 36.7434 219.544 36.7434C219.014 36.7434 218.583 37.1745 218.583 37.7062C218.583 38.2379 219.014 38.669 219.544 38.669Z" fill="#263238"/>
<path d="M220.489 40.5021C220.49 40.6941 220.434 40.882 220.328 41.0421C220.222 41.2021 220.072 41.327 219.895 41.401C219.718 41.475 219.523 41.4946 219.335 41.4574C219.147 41.4202 218.975 41.3279 218.839 41.1922C218.704 41.0564 218.612 40.8834 218.574 40.6951C218.537 40.5068 218.557 40.3116 218.631 40.1345C218.705 39.9574 218.829 39.8062 218.989 39.7002C219.149 39.5943 219.336 39.5382 219.528 39.5393C219.782 39.5407 220.026 39.6426 220.206 39.8229C220.386 40.0031 220.487 40.2472 220.489 40.5021Z" fill="#263238"/>
<path d="M220.489 43.3251C220.49 43.5171 220.434 43.705 220.328 43.8651C220.222 44.0251 220.072 44.15 219.895 44.224C219.718 44.298 219.523 44.3176 219.335 44.2804C219.147 44.2432 218.975 44.1509 218.839 44.0152C218.704 43.8794 218.612 43.7064 218.574 43.5181C218.537 43.3298 218.557 43.1346 218.631 42.9575C218.705 42.7804 218.829 42.6292 218.989 42.5232C219.149 42.4173 219.336 42.3612 219.528 42.3623C219.783 42.3623 220.027 42.4638 220.207 42.6443C220.387 42.8249 220.489 43.0698 220.489 43.3251Z" fill="#263238"/>
<path d="M141.404 40.9698C141.345 40.9711 141.288 40.9519 141.241 40.9155L138.695 39.0443C138.66 39.0184 138.632 38.9848 138.612 38.9461C138.593 38.9074 138.582 38.8647 138.581 38.8213C138.581 38.7785 138.592 38.7364 138.612 38.6985C138.632 38.6607 138.66 38.6281 138.695 38.6037L141.241 36.7652C141.271 36.7443 141.304 36.7294 141.338 36.7214C141.373 36.7134 141.41 36.7124 141.445 36.7184C141.48 36.7245 141.514 36.7375 141.544 36.7568C141.575 36.776 141.601 36.801 141.621 36.8304C141.662 36.8884 141.679 36.9601 141.668 37.0303C141.657 37.1004 141.619 37.1634 141.562 37.2058L139.314 38.8376L141.562 40.4694C141.619 40.5128 141.657 40.5767 141.668 40.6477C141.679 40.7187 141.663 40.7913 141.621 40.8502C141.598 40.8863 141.565 40.9161 141.528 40.9369C141.49 40.9577 141.447 40.9691 141.404 40.9698Z" fill="#263238"/>
<path d="M207.845 132.429C214.57 132.429 220.022 126.978 220.022 120.255C220.022 113.532 214.57 108.082 207.845 108.082C201.121 108.082 195.669 113.532 195.669 120.255C195.669 126.978 201.121 132.429 207.845 132.429Z" fill="#E0E0E0"/>
<path d="M211.179 127.452H204.773C204.554 127.452 204.344 127.364 204.189 127.209C204.035 127.054 203.948 126.844 203.948 126.625C203.948 126.405 204.034 126.194 204.189 126.038C204.344 125.882 204.553 125.794 204.773 125.792H211.179C211.398 125.794 211.608 125.882 211.762 126.038C211.917 126.194 212.004 126.405 212.004 126.625C212.004 126.844 211.917 127.054 211.762 127.209C211.607 127.364 211.397 127.452 211.179 127.452Z" fill="#263238"/>
<path d="M208.339 112.341H207.775V115.191H208.339V112.341Z" fill="#263238"/>
<path d="M199.757 123.736C200.668 123.736 201.407 122.996 201.407 122.083C201.407 121.17 200.668 120.429 199.757 120.429C198.845 120.429 198.106 121.17 198.106 122.083C198.106 122.996 198.845 123.736 199.757 123.736Z" fill="#FFB703"/>
<path d="M216.444 123.627C217.356 123.627 218.095 122.887 218.095 121.974C218.095 121.061 217.356 120.32 216.444 120.32C215.533 120.32 214.794 121.061 214.794 121.974C214.794 122.887 215.533 123.627 216.444 123.627Z" fill="#FFB703"/>
<path d="M208.301 114.593C208.301 114.593 215.022 114.511 216.086 120.348C217.15 126.184 211.466 126.287 209.832 126.396C209.094 126.445 207.509 126.451 206.108 126.429C203.009 126.374 200.821 125.776 200.077 122.893C199.988 122.555 199.932 122.209 199.909 121.86C199.713 118.705 201.841 114.44 208.301 114.593Z" fill="#FFB703"/>
<path d="M203.426 123.475L213.198 123.628C213.69 123.635 214.164 123.447 214.517 123.104C214.87 122.761 215.073 122.292 215.082 121.8C215.088 121.307 214.898 120.833 214.555 120.48C214.212 120.127 213.744 119.925 213.252 119.918L203.481 119.766C203.237 119.761 202.995 119.805 202.769 119.895C202.542 119.984 202.335 120.118 202.16 120.288C201.985 120.457 201.845 120.66 201.749 120.884C201.652 121.108 201.601 121.349 201.597 121.593C201.593 121.837 201.638 122.08 201.728 122.306C201.818 122.533 201.952 122.74 202.122 122.915C202.292 123.09 202.495 123.229 202.718 123.325C202.942 123.421 203.183 123.472 203.426 123.475Z" fill="#263238"/>
<path d="M211.168 121.599C211.182 121.676 211.212 121.749 211.254 121.814C211.297 121.88 211.352 121.936 211.417 121.98C211.482 122.024 211.554 122.055 211.631 122.071C211.707 122.086 211.786 122.087 211.863 122.072C211.945 122.063 212.025 122.038 212.098 121.997C212.17 121.956 212.233 121.9 212.282 121.833C212.332 121.766 212.367 121.69 212.385 121.609C212.403 121.528 212.405 121.443 212.389 121.362C212.373 121.28 212.34 121.203 212.293 121.134C212.245 121.066 212.184 121.009 212.113 120.965C212.042 120.922 211.963 120.894 211.88 120.883C211.798 120.872 211.714 120.879 211.635 120.902C211.558 120.917 211.486 120.947 211.421 120.99C211.356 121.033 211.301 121.089 211.257 121.154C211.214 121.218 211.184 121.291 211.168 121.367C211.153 121.444 211.153 121.522 211.168 121.599Z" fill="white"/>
<path d="M204.344 121.49C204.352 121.573 204.378 121.653 204.419 121.725C204.46 121.798 204.515 121.861 204.582 121.91C204.649 121.96 204.725 121.995 204.806 122.013C204.887 122.032 204.971 122.033 205.053 122.017C205.134 122.001 205.211 121.968 205.28 121.921C205.348 121.873 205.405 121.812 205.448 121.741C205.491 121.67 205.519 121.59 205.53 121.508C205.541 121.425 205.534 121.341 205.511 121.261C205.469 121.118 205.376 120.996 205.248 120.919C205.121 120.841 204.97 120.814 204.824 120.843C204.678 120.871 204.547 120.953 204.459 121.073C204.37 121.193 204.329 121.341 204.344 121.49Z" fill="white"/>
<path d="M208.985 112.303C208.986 112.487 208.933 112.667 208.832 112.821C208.73 112.975 208.586 113.095 208.416 113.166C208.247 113.237 208.06 113.256 207.879 113.221C207.699 113.186 207.533 113.098 207.403 112.968C207.272 112.838 207.183 112.672 207.147 112.492C207.111 112.311 207.129 112.124 207.199 111.953C207.269 111.783 207.388 111.638 207.541 111.535C207.694 111.433 207.873 111.378 208.057 111.378C208.302 111.378 208.538 111.475 208.712 111.648C208.886 111.822 208.984 112.057 208.985 112.303Z" fill="#FFB703"/>
<path d="M209.458 121.327C209.458 121.327 209.496 121.37 209.517 121.468C209.534 121.607 209.521 121.748 209.479 121.881C209.42 122.088 209.307 122.275 209.154 122.425C208.965 122.614 208.718 122.731 208.453 122.757C208.189 122.779 207.924 122.71 207.704 122.561C207.53 122.443 207.387 122.285 207.286 122.099C207.222 121.974 207.185 121.837 207.178 121.697C207.178 121.599 207.178 121.544 207.21 121.544C207.243 121.544 207.264 121.751 207.444 122.007C207.548 122.148 207.679 122.268 207.829 122.36C208.011 122.468 208.221 122.518 208.432 122.502C208.634 122.476 208.823 122.388 208.974 122.251C209.111 122.138 209.221 121.994 209.295 121.833C209.436 121.55 209.414 121.327 209.458 121.327Z" fill="white"/>
<path d="M216.075 120.157C216.096 120.203 216.112 120.25 216.124 120.299C216.145 120.356 216.163 120.414 216.178 120.473C216.178 120.538 216.216 120.614 216.233 120.707C216.274 120.91 216.303 121.115 216.32 121.321C216.338 121.575 216.338 121.829 216.32 122.083C216.297 122.336 216.255 122.587 216.195 122.833C216.144 123.034 216.078 123.23 215.999 123.421C215.972 123.497 215.942 123.571 215.907 123.644C215.883 123.698 215.856 123.751 215.826 123.802L215.75 123.938C215.762 123.888 215.782 123.84 215.809 123.796L215.88 123.628C215.907 123.562 215.94 123.492 215.967 123.41C216.04 123.219 216.1 123.022 216.146 122.823C216.204 122.577 216.245 122.328 216.271 122.077C216.287 121.826 216.287 121.573 216.271 121.321C216.257 121.117 216.232 120.913 216.195 120.712C216.183 120.628 216.167 120.544 216.146 120.462C216.146 120.391 216.119 120.337 216.108 120.288C216.091 120.246 216.08 120.202 216.075 120.157Z" fill="#263238"/>
<path d="M200.153 120.19C200.13 120.237 200.112 120.286 200.099 120.337C200.099 120.38 200.066 120.44 200.044 120.505C200.023 120.571 200.006 120.652 199.99 120.739C199.948 120.942 199.921 121.147 199.909 121.354C199.89 121.607 199.89 121.862 199.909 122.115C199.93 122.369 199.972 122.62 200.034 122.866C200.084 123.068 200.149 123.266 200.229 123.459C200.256 123.541 200.294 123.611 200.321 123.677C200.348 123.742 200.381 123.796 200.403 123.84L200.479 123.97C200.464 123.921 200.444 123.873 200.419 123.829C200.419 123.785 200.376 123.731 200.348 123.666C200.321 123.6 200.289 123.53 200.262 123.448C200.189 123.255 200.129 123.057 200.082 122.855C200.024 122.61 199.982 122.361 199.958 122.11C199.942 121.86 199.942 121.609 199.958 121.359C199.971 121.153 199.997 120.948 200.034 120.745C200.045 120.668 200.061 120.591 200.082 120.516C200.082 120.445 200.11 120.386 200.12 120.342C200.131 120.299 200.153 120.19 200.153 120.19Z" fill="#263238"/>
<path d="M201.602 130.71C201.602 130.71 203.6 128.757 207.775 128.757C211.949 128.757 214.088 130.71 214.088 130.71C212.204 131.849 210.046 132.451 207.845 132.451C205.645 132.451 203.486 131.849 201.602 130.71Z" fill="#FFB703"/>
<path d="M141.23 132.668H182.727C183.217 132.669 183.702 132.572 184.155 132.385C184.608 132.197 185.019 131.922 185.366 131.575C185.712 131.228 185.987 130.816 186.174 130.362C186.361 129.908 186.457 129.422 186.456 128.931V116.866L191.033 112.798H141.23C140.741 112.798 140.256 112.894 139.803 113.082C139.351 113.27 138.94 113.545 138.593 113.892C138.247 114.239 137.972 114.651 137.785 115.104C137.597 115.558 137.501 116.044 137.501 116.534V128.931C137.5 129.422 137.596 129.908 137.783 130.362C137.971 130.816 138.245 131.228 138.592 131.575C138.938 131.922 139.35 132.197 139.802 132.385C140.255 132.572 140.74 132.669 141.23 132.668Z" fill="#EBEBEB"/>
<path d="M180.86 118.694C180.86 118.776 172.315 118.835 161.773 118.835C151.23 118.835 142.685 118.776 142.685 118.694C142.685 118.612 151.23 118.552 161.773 118.552C172.315 118.552 180.86 118.618 180.86 118.694Z" fill="white"/>
<path d="M180.86 121.925C180.86 122.007 172.315 122.066 161.773 122.066C151.23 122.066 142.685 122.007 142.685 121.925C142.685 121.843 151.23 121.784 161.773 121.784C172.315 121.784 180.86 121.849 180.86 121.925Z" fill="white"/>
<path d="M180.86 125.156C180.86 125.232 172.315 125.298 161.773 125.298C151.23 125.298 142.685 125.232 142.685 125.156C142.685 125.08 151.23 125.015 161.773 125.015C172.315 125.015 180.86 125.08 180.86 125.156Z" fill="white"/>
<path d="M180.86 128.387C180.86 128.463 172.315 128.528 161.773 128.528C151.23 128.528 142.685 128.463 142.685 128.387C142.685 128.311 151.23 128.246 161.773 128.246C172.315 128.246 180.86 128.305 180.86 128.387Z" fill="white"/>
<path d="M207.845 200.03C214.57 200.03 220.022 194.58 220.022 187.856C220.022 181.133 214.57 175.683 207.845 175.683C201.121 175.683 195.669 181.133 195.669 187.856C195.669 194.58 201.121 200.03 207.845 200.03Z" fill="#E0E0E0"/>
<path d="M211.179 195.053H204.773C204.664 195.053 204.556 195.031 204.456 194.989C204.355 194.947 204.264 194.886 204.187 194.809C204.111 194.731 204.05 194.64 204.009 194.539C203.968 194.438 203.947 194.33 203.948 194.221C203.948 194.001 204.035 193.791 204.189 193.636C204.344 193.481 204.554 193.394 204.773 193.394H211.179C211.397 193.394 211.607 193.481 211.762 193.636C211.917 193.791 212.004 194.001 212.004 194.221C212.004 194.33 211.984 194.438 211.943 194.539C211.901 194.64 211.841 194.731 211.764 194.809C211.687 194.886 211.596 194.947 211.496 194.989C211.395 195.031 211.287 195.053 211.179 195.053Z" fill="#263238"/>
<path d="M208.339 179.942H207.775V182.792H208.339V179.942Z" fill="#263238"/>
<path d="M199.757 191.338C200.668 191.338 201.407 190.597 201.407 189.684C201.407 188.771 200.668 188.031 199.757 188.031C198.845 188.031 198.106 188.771 198.106 189.684C198.106 190.597 198.845 191.338 199.757 191.338Z" fill="#FFB703"/>
<path d="M216.444 191.223C217.356 191.223 218.095 190.483 218.095 189.57C218.095 188.657 217.356 187.916 216.444 187.916C215.533 187.916 214.794 188.657 214.794 189.57C214.794 190.483 215.533 191.223 216.444 191.223Z" fill="#FFB703"/>
<path d="M208.301 182.194C208.301 182.194 215.022 182.112 216.086 187.943C217.15 193.775 211.466 193.889 209.832 193.998C209.094 194.046 207.509 194.052 206.108 194.03C203.009 193.976 200.821 193.372 200.077 190.495C199.988 190.156 199.932 189.81 199.909 189.461C199.713 186.306 201.841 182.036 208.301 182.194Z" fill="#FFB703"/>
<path d="M203.426 191.077L213.198 191.229C213.69 191.236 214.164 191.048 214.517 190.705C214.87 190.363 215.073 189.894 215.082 189.401C215.088 188.909 214.898 188.434 214.555 188.081C214.212 187.728 213.744 187.526 213.252 187.519L203.481 187.361C202.989 187.354 202.515 187.542 202.162 187.885C201.809 188.228 201.606 188.697 201.597 189.189C201.593 189.433 201.638 189.676 201.728 189.903C201.818 190.13 201.952 190.337 202.122 190.513C202.291 190.688 202.494 190.828 202.718 190.925C202.942 191.021 203.183 191.073 203.426 191.077Z" fill="#263238"/>
<path d="M211.168 189.2C211.181 189.277 211.209 189.352 211.251 189.418C211.293 189.485 211.347 189.542 211.411 189.588C211.475 189.633 211.548 189.666 211.624 189.683C211.701 189.701 211.78 189.703 211.857 189.689C211.935 189.676 212.009 189.648 212.075 189.606C212.141 189.564 212.199 189.51 212.244 189.445C212.29 189.381 212.322 189.309 212.339 189.232C212.357 189.156 212.359 189.076 212.346 188.999C212.337 188.916 212.312 188.836 212.271 188.763C212.23 188.691 212.174 188.628 212.108 188.578C212.041 188.529 211.965 188.494 211.884 188.475C211.803 188.457 211.719 188.456 211.637 188.472C211.556 188.488 211.478 188.52 211.41 188.568C211.342 188.615 211.285 188.677 211.241 188.748C211.198 188.819 211.17 188.898 211.16 188.981C211.149 189.063 211.155 189.147 211.179 189.227L211.168 189.2Z" fill="white"/>
<path d="M204.344 189.091C204.367 189.207 204.423 189.314 204.506 189.398C204.589 189.482 204.695 189.54 204.811 189.563C204.927 189.587 205.047 189.575 205.156 189.531C205.266 189.486 205.359 189.41 205.425 189.311C205.491 189.213 205.527 189.098 205.527 188.979C205.528 188.861 205.493 188.745 205.428 188.647C205.363 188.548 205.27 188.471 205.161 188.425C205.052 188.379 204.932 188.367 204.816 188.39C204.739 188.405 204.666 188.435 204.601 188.478C204.535 188.521 204.479 188.577 204.435 188.642C204.391 188.707 204.361 188.781 204.345 188.858C204.329 188.935 204.329 189.014 204.344 189.091Z" fill="white"/>
<path d="M208.985 179.882C208.985 180.066 208.931 180.246 208.829 180.399C208.727 180.552 208.582 180.671 208.412 180.742C208.243 180.812 208.056 180.83 207.876 180.794C207.696 180.759 207.53 180.67 207.401 180.54C207.271 180.41 207.182 180.244 207.147 180.064C207.111 179.883 207.129 179.696 207.199 179.526C207.27 179.356 207.389 179.211 207.541 179.109C207.694 179.007 207.873 178.952 208.057 178.952C208.303 178.952 208.539 179.05 208.713 179.224C208.888 179.399 208.985 179.635 208.985 179.882Z" fill="#FFB703"/>
<path d="M209.458 188.922C209.458 188.922 209.496 188.971 209.517 189.069C209.534 189.208 209.521 189.349 209.479 189.483C209.418 189.689 209.306 189.876 209.154 190.027C208.965 190.215 208.718 190.332 208.453 190.359C208.189 190.381 207.924 190.311 207.704 190.163C207.53 190.044 207.387 189.886 207.286 189.7C207.222 189.575 207.186 189.438 207.178 189.298C207.178 189.2 207.178 189.146 207.21 189.146C207.243 189.146 207.264 189.352 207.444 189.602C207.546 189.747 207.678 189.869 207.829 189.961C208.012 190.066 208.221 190.115 208.432 190.103C208.634 190.077 208.823 189.99 208.974 189.853C209.109 189.737 209.218 189.594 209.295 189.434C209.436 189.14 209.414 188.928 209.458 188.922Z" fill="white"/>
<path d="M216.075 187.753C216.075 187.753 216.075 187.807 216.124 187.9C216.146 187.957 216.164 188.015 216.178 188.074C216.178 188.139 216.216 188.215 216.233 188.302C216.273 188.505 216.302 188.711 216.32 188.917C216.338 189.171 216.338 189.425 216.32 189.679C216.298 189.932 216.256 190.183 216.195 190.429C216.144 190.631 216.079 190.83 215.999 191.022C215.972 191.096 215.942 191.169 215.907 191.24C215.884 191.296 215.857 191.351 215.826 191.403L215.75 191.533C215.764 191.484 215.784 191.437 215.809 191.392C215.809 191.349 215.853 191.294 215.88 191.229C215.907 191.164 215.94 191.093 215.967 191.011C216.04 190.818 216.1 190.62 216.146 190.418C216.204 190.175 216.246 189.928 216.271 189.679C216.287 189.427 216.287 189.174 216.271 188.923C216.257 188.718 216.232 188.515 216.195 188.313C216.183 188.234 216.167 188.156 216.146 188.079C216.146 188.009 216.119 187.954 216.108 187.905C216.089 187.857 216.078 187.805 216.075 187.753Z" fill="#263238"/>
<path d="M200.153 187.791C200.13 187.838 200.112 187.887 200.099 187.938C200.099 187.982 200.066 188.041 200.044 188.107C200.023 188.172 200.006 188.253 199.99 188.341C199.948 188.543 199.921 188.749 199.909 188.955C199.89 189.209 199.89 189.463 199.909 189.717C199.931 189.97 199.973 190.221 200.034 190.467C200.084 190.67 200.149 190.868 200.229 191.06C200.256 191.142 200.294 191.213 200.321 191.278C200.348 191.343 200.381 191.397 200.403 191.441L200.479 191.572C200.466 191.522 200.445 191.474 200.419 191.43C200.419 191.387 200.376 191.332 200.348 191.267C200.321 191.202 200.289 191.131 200.262 191.044C200.189 190.852 200.129 190.656 200.082 190.456C200.024 190.211 199.982 189.962 199.958 189.711C199.942 189.461 199.942 189.211 199.958 188.961C199.971 188.754 199.997 188.549 200.034 188.346C200.045 188.269 200.061 188.193 200.082 188.118C200.082 188.047 200.11 187.987 200.12 187.943C200.131 187.9 200.153 187.791 200.153 187.791Z" fill="#263238"/>
<path d="M201.602 198.311C201.602 198.311 203.6 196.358 207.775 196.358C211.949 196.358 214.088 198.311 214.088 198.311C212.204 199.45 210.046 200.052 207.845 200.052C205.645 200.052 203.486 199.45 201.602 198.311Z" fill="#FFB703"/>
<path d="M141.23 200.269H182.727C183.217 200.27 183.702 200.174 184.155 199.986C184.608 199.799 185.019 199.523 185.366 199.176C185.712 198.829 185.987 198.417 186.174 197.963C186.361 197.509 186.457 197.023 186.456 196.532V184.468L191.033 180.399H141.23C140.741 180.399 140.256 180.496 139.803 180.683C139.351 180.871 138.94 181.146 138.593 181.493C138.247 181.84 137.972 182.252 137.785 182.706C137.597 183.159 137.501 183.645 137.501 184.136V196.532C137.5 197.023 137.596 197.509 137.783 197.963C137.971 198.417 138.245 198.829 138.592 199.176C138.938 199.523 139.35 199.799 139.802 199.986C140.255 200.174 140.74 200.27 141.23 200.269Z" fill="#EBEBEB"/>
<path d="M141.23 219.139H182.727C183.217 219.139 183.703 219.042 184.155 218.854C184.608 218.665 185.02 218.39 185.366 218.042C185.712 217.695 185.987 217.282 186.174 216.828C186.361 216.374 186.457 215.887 186.456 215.396V211.398L191.033 207.33H141.23C140.741 207.33 140.256 207.426 139.803 207.614C139.351 207.802 138.94 208.077 138.593 208.424C138.247 208.771 137.972 209.183 137.785 209.636C137.597 210.09 137.501 210.576 137.501 211.066V215.418C137.505 216.406 137.9 217.353 138.599 218.05C139.298 218.747 140.244 219.139 141.23 219.139Z" fill="#EBEBEB"/>
<path d="M180.86 186.279C180.86 186.361 172.315 186.42 161.773 186.42C151.23 186.42 142.685 186.361 142.685 186.279C142.685 186.197 151.23 186.138 161.773 186.138C172.315 186.138 180.86 186.219 180.86 186.279Z" fill="white"/>
<path d="M180.86 189.543C180.86 189.619 172.315 189.684 161.773 189.684C151.23 189.684 142.685 189.619 142.685 189.543C142.685 189.467 151.23 189.401 161.773 189.401C172.315 189.401 180.86 189.45 180.86 189.543Z" fill="white"/>
<path d="M180.86 192.757C180.86 192.834 172.315 192.899 161.773 192.899C151.23 192.899 142.685 192.834 142.685 192.757C142.685 192.681 151.23 192.616 161.773 192.616C172.315 192.616 180.86 192.676 180.86 192.757Z" fill="white"/>
<path d="M180.86 195.988C180.86 196.065 172.315 196.13 161.773 196.13C151.23 196.13 142.685 196.065 142.685 195.988C142.685 195.912 151.23 195.847 161.773 195.847C172.315 195.847 180.86 195.907 180.86 195.988Z" fill="white"/>
<path d="M180.99 213.405C180.99 213.482 172.532 213.547 162.104 213.547C151.675 213.547 143.212 213.482 143.212 213.405C143.212 213.329 151.67 213.264 162.104 213.264C172.537 213.264 180.99 213.324 180.99 213.405Z" fill="white"/>
<path d="M42.1252 205.529C42.8563 205.706 43.5444 206.028 44.148 206.478C44.7516 206.928 45.2582 207.495 45.6375 208.146C46.3878 209.456 46.8315 210.919 46.9349 212.426C47.2118 215.32 46.2075 218.513 44.9589 221.129C42.1414 219.552 40.8331 216.044 40.2794 214.221C39.4054 211.344 39.5683 205.605 42.1252 205.518" fill="#455A64"/>
<path d="M48.7048 225.22C48.3683 224.449 48.2414 223.603 48.3367 222.767C48.432 221.931 48.7463 221.135 49.2476 220.46C49.7636 219.796 50.4068 219.242 51.1395 218.83C51.8722 218.418 52.6797 218.157 53.5145 218.062C53.8892 217.98 54.2769 217.981 54.6515 218.062C55.0261 218.144 55.3788 218.305 55.686 218.535C55.9357 218.8 56.1097 219.128 56.1899 219.484C56.2701 219.84 56.2536 220.211 56.142 220.558C55.9114 221.25 55.5033 221.869 54.9586 222.353C53.1725 224.083 51.1259 225.427 48.6505 225.22" fill="#455A64"/>
<path d="M47.4887 234.538C47.4566 234.34 47.4439 234.14 47.4507 233.939C47.4507 233.515 47.4507 232.966 47.4072 232.307C47.2966 230.504 47.48 228.694 47.9501 226.95C48.4548 225.2 49.4162 223.617 50.735 222.364C51.1388 221.992 51.5853 221.669 52.065 221.401C52.193 221.328 52.3254 221.263 52.4613 221.206C52.5062 221.178 52.556 221.16 52.6079 221.151C51.9756 221.532 51.3827 221.975 50.8381 222.473C49.5639 223.73 48.6298 225.291 48.1238 227.009C47.6567 228.735 47.4499 230.521 47.5104 232.307C47.5104 232.998 47.5104 233.553 47.5104 233.939C47.5178 234.139 47.5105 234.339 47.4887 234.538Z" fill="#263238"/>
<path d="M42.3857 209.913C42.4204 209.992 42.4477 210.074 42.4671 210.158C42.5214 210.343 42.5866 210.582 42.6626 210.876C42.8309 211.502 43.0643 212.41 43.3357 213.536C43.8786 215.788 44.606 218.91 45.3226 222.37C46.0392 225.829 46.6146 228.984 47.0001 231.269C47.1901 232.411 47.3366 233.336 47.4343 233.988C47.4778 234.293 47.5103 234.532 47.5375 234.728C47.5461 234.815 47.5461 234.902 47.5375 234.989C47.5094 234.906 47.4876 234.82 47.4723 234.733C47.4343 234.543 47.3909 234.304 47.3312 233.999C47.2063 233.341 47.0381 232.422 46.8318 231.307C46.4083 229.028 45.8112 225.867 45.0946 222.424C44.378 218.981 43.6832 215.842 43.1729 213.585C42.9177 212.497 42.7114 211.567 42.5649 210.909C42.4997 210.61 42.4454 210.365 42.4074 210.18C42.3899 210.092 42.3826 210.003 42.3857 209.913Z" fill="#263238"/>
<path d="M44.959 227.814C44.3061 226.166 43.2716 224.697 41.9408 223.528C40.6099 222.359 39.0209 221.524 37.3046 221.091C36.4306 220.879 35.3448 220.852 34.8128 221.581C34.2808 222.31 34.6554 223.343 35.1494 224.099C36.2055 225.654 37.6962 226.862 39.4345 227.571C41.1728 228.28 43.0814 228.46 44.921 228.086" fill="#455A64"/>
<path d="M38.2599 223.664C38.4437 223.687 38.6253 223.725 38.8028 223.778C39.0176 223.829 39.2296 223.89 39.4379 223.963C39.6768 224.05 39.9808 224.127 40.2576 224.263C40.5345 224.398 40.8874 224.529 41.2185 224.714C41.5821 224.899 41.9338 225.106 42.2717 225.334C43.05 225.852 43.7659 226.458 44.4051 227.14C45.0319 227.832 45.5783 228.593 46.0337 229.408C46.2344 229.761 46.4156 230.124 46.5766 230.496C46.7156 230.823 46.837 231.157 46.9403 231.497C47.0489 231.802 47.0923 232.095 47.1574 232.346C47.2094 232.561 47.2493 232.779 47.2769 232.998C47.3101 233.178 47.3283 233.36 47.3312 233.542C47.2823 233.542 47.1954 232.748 46.7883 231.524C46.6808 231.193 46.5558 230.868 46.4137 230.551C46.2527 230.178 46.0715 229.815 45.8709 229.463C45.4104 228.666 44.8642 227.921 44.2423 227.243C43.6114 226.576 42.9128 225.976 42.1577 225.454C41.7994 225.225 41.4628 225.002 41.1262 224.834C40.8221 224.66 40.5086 224.504 40.1871 224.366C39.0308 223.887 38.2436 223.708 38.2599 223.664Z" fill="#263238"/>
<path d="M55.5123 64.2724L53.5037 57.9898C56.3605 53.3446 57.38 47.7967 56.3616 42.4366C55.3432 37.0765 52.3607 32.2919 48.0003 29.0234C43.6399 25.7548 38.217 24.2388 32.7976 24.7732C27.3783 25.3077 22.3544 27.8539 18.7136 31.9115C15.0728 35.9691 13.0785 41.2445 13.1225 46.7007C13.1666 52.1569 15.246 57.3992 18.9518 61.3972C22.6577 65.3952 27.722 67.8597 33.1493 68.3062C38.5766 68.7526 43.9743 67.1488 48.2813 63.81L55.5123 64.2724Z" fill="#FAFAFA"/>
<path d="M55.5122 64.2724H55.0562L53.6773 64.2017L48.2486 63.9025C48.2403 63.9025 48.2321 63.9008 48.2245 63.8975C48.2168 63.8941 48.21 63.8892 48.2044 63.8831C48.1988 63.877 48.1945 63.8697 48.1918 63.8618C48.1892 63.8539 48.1882 63.8455 48.1889 63.8372C48.1866 63.8265 48.1866 63.8153 48.1889 63.8046L48.2758 63.8916C44.5037 66.8439 39.865 68.4671 35.0787 68.5097C33.8699 68.5032 32.6633 68.4069 31.4687 68.2214C25.9181 67.3509 20.9188 64.3629 17.5171 59.8828C15.6225 57.3607 14.288 54.462 13.603 51.3809C12.8586 48.105 12.8884 44.7 13.6899 41.4376C13.793 41.0242 13.9016 40.6054 14.0102 40.192C14.1188 39.7786 14.2979 39.3761 14.439 38.9681C14.5766 38.5556 14.7361 38.1506 14.9168 37.7551C15.1013 37.3635 15.2913 36.9718 15.4596 36.5748C15.6464 36.1778 15.8605 35.7943 16.1002 35.427L16.7896 34.2956L17.5822 33.2078L17.9839 32.6638C18.1197 32.4898 18.2771 32.332 18.4237 32.1634C20.7713 29.4588 23.7493 27.3773 27.0932 26.1039C30.2765 24.8885 33.6948 24.4178 37.0873 24.7277C40.2751 25.0453 43.3538 26.063 46.1043 27.7085C50.9924 30.6173 54.5576 35.3193 56.0442 40.8175C56.3582 41.9956 56.5832 43.1956 56.7173 44.4076C56.8043 45.5404 56.8242 46.6774 56.777 47.8127C56.569 51.4305 55.4605 54.9386 53.5524 58.017V57.9681C54.193 60.0133 54.6816 61.5907 55.0182 62.6677C55.181 63.2117 55.3005 63.587 55.3873 63.8644L55.5067 64.2669C55.5067 64.2669 55.4525 64.1201 55.3602 63.8481L54.9639 62.646C54.6164 61.5581 54.1007 60.0242 53.4384 58.0061C53.4326 57.9904 53.4326 57.973 53.4384 57.9572C55.3105 54.8856 56.3907 51.3957 56.5816 47.8018C56.6233 46.6771 56.5979 45.551 56.5056 44.4293C56.37 43.228 56.1432 42.0387 55.827 40.8719C54.6627 36.6393 52.2475 32.8586 48.8991 30.0268C45.5506 27.1949 41.4254 25.4443 37.0656 25.0051C33.7159 24.6979 30.3403 25.1612 27.1964 26.3595C23.9033 27.6221 20.9707 29.6769 18.6571 32.3429C18.516 32.5115 18.3585 32.6638 18.2228 32.8379L17.8265 33.3818L17.0448 34.4316L16.3716 35.5522C16.1328 35.9181 15.9188 36.2997 15.7311 36.6944C15.5465 37.0806 15.3619 37.4723 15.1882 37.8585C15.0111 38.2486 14.8552 38.6481 14.7213 39.0552C14.5802 39.4577 14.4119 39.8547 14.2925 40.2627C14.173 40.6707 14.0807 41.0841 13.9776 41.492C13.1905 44.7043 13.157 48.0556 13.8799 51.283C14.8205 55.5212 17.0101 59.3785 20.1646 62.3551C23.3191 65.3316 27.2933 67.2901 31.5718 67.9766C32.7555 68.1629 33.9512 68.2629 35.1493 68.2758C36.2677 68.2711 37.384 68.1783 38.4879 67.9984C42.0448 67.4177 45.4023 65.9618 48.2595 63.7611C48.2651 63.7551 48.2718 63.7504 48.2793 63.7472C48.2867 63.744 48.2948 63.7423 48.3029 63.7423C48.3111 63.7423 48.3191 63.744 48.3266 63.7472C48.334 63.7504 48.3408 63.7551 48.3464 63.7611C48.3543 63.7722 48.3586 63.7855 48.3586 63.7992C48.3586 63.8128 48.3543 63.8261 48.3464 63.8372L48.3029 63.7393L53.6664 64.1092L55.0562 64.2071L55.5122 64.2724Z" fill="#263238"/>
<path d="M28.825 46.5616C28.825 46.9994 28.6955 47.4275 28.4527 47.7915C28.2099 48.1556 27.8648 48.4393 27.4611 48.6069C27.0574 48.7745 26.6131 48.8183 26.1845 48.7329C25.7559 48.6475 25.3623 48.4366 25.0533 48.127C24.7443 47.8174 24.5338 47.4229 24.4486 46.9935C24.3633 46.564 24.4071 46.1189 24.5743 45.7144C24.7415 45.3098 25.0247 44.9641 25.3881 44.7208C25.7514 44.4776 26.1786 44.3477 26.6156 44.3477C27.2011 44.3492 27.7623 44.5829 28.1763 44.9977C28.5904 45.4126 28.8236 45.9749 28.825 46.5616Z" fill="#263238"/>
<path d="M37.6737 46.5616C37.6737 46.9994 37.5441 47.4275 37.3013 47.7915C37.0585 48.1556 36.7135 48.4393 36.3097 48.6069C35.906 48.7745 35.4618 48.8183 35.0332 48.7329C34.6046 48.6475 34.2109 48.4366 33.9019 48.127C33.5929 47.8174 33.3825 47.4229 33.2972 46.9935C33.212 46.564 33.2557 46.1189 33.4229 45.7144C33.5902 45.3098 33.8734 44.9641 34.2367 44.7208C34.6001 44.4776 35.0272 44.3477 35.4642 44.3477C36.0498 44.3492 36.6109 44.5829 37.025 44.9977C37.439 45.4126 37.6722 45.9749 37.6737 46.5616Z" fill="#263238"/>
<path d="M46.5006 45.4574C46.7184 45.8366 46.8192 46.2719 46.7903 46.7085C46.7613 47.1451 46.6039 47.5633 46.338 47.9103C46.072 48.2573 45.7093 48.5175 45.2958 48.6581C44.8824 48.7988 44.4365 48.8135 44.0147 48.7004C43.5929 48.5873 43.214 48.3516 42.9258 48.0229C42.6376 47.6942 42.453 47.2873 42.3955 46.8535C42.3379 46.4198 42.4099 45.9787 42.6024 45.586C42.7949 45.1933 43.0991 44.8665 43.4768 44.6469C43.7284 44.5007 44.0062 44.4056 44.2945 44.3672C44.5827 44.3288 44.8757 44.3478 45.1566 44.4231C45.4376 44.4984 45.7009 44.6285 45.9315 44.806C46.1621 44.9835 46.3555 45.2048 46.5006 45.4574Z" fill="#263238"/>
<path d="M47.38 144.395L24.5146 142.024L14.8299 120L7.30579 121.963C7.30579 121.963 12.8647 145.238 19.0859 148.845C25.3072 152.451 46.5603 153.098 46.5603 153.098L47.38 144.395Z" fill="#FFB703"/>
<path d="M59.5358 155.597C63.2563 151.403 62.8789 144.981 58.6927 141.253C54.5066 137.525 48.097 137.903 44.3764 142.097C40.6559 146.292 41.0333 152.714 45.2194 156.442C49.4056 160.17 55.8152 159.792 59.5358 155.597Z" fill="#263238"/>
<path d="M51.9565 159.016C49.6067 159.016 47.3295 158.2 45.513 156.706C43.6965 155.213 42.4532 153.134 41.9947 150.825C41.5363 148.515 41.8912 146.118 42.9989 144.042C44.1066 141.965 45.8987 140.338 48.0697 139.437C50.2407 138.536 52.6563 138.417 54.905 139.1C57.1537 139.784 59.0963 141.227 60.4018 143.185C61.7073 145.143 62.295 147.494 62.0647 149.837C61.8343 152.18 60.8003 154.371 59.1386 156.036C58.1976 156.984 57.0783 157.735 55.8455 158.247C54.6127 158.758 53.2909 159.02 51.9565 159.016ZM51.9565 138.695C49.613 138.692 47.3411 139.504 45.5279 140.992C43.7148 142.48 42.4726 144.552 42.013 146.854C41.5534 149.157 41.9048 151.548 43.0073 153.62C44.1099 155.692 45.8954 157.317 48.0596 158.218C50.2238 159.119 52.6328 159.24 54.8762 158.561C57.1196 157.882 59.0585 156.444 60.3626 154.493C61.6668 152.542 62.2554 150.198 62.0283 147.861C61.8011 145.524 60.7722 143.338 59.1169 141.676C58.1794 140.729 57.0638 139.978 55.8347 139.467C54.6056 138.955 53.2875 138.693 51.9565 138.695Z" fill="#263238"/>
<path d="M22.465 150.585C26.5494 149.602 29.0655 145.488 28.0849 141.396C27.1044 137.303 22.9984 134.782 18.9141 135.764C14.8297 136.747 12.3136 140.861 13.2942 144.954C14.2747 149.046 18.3807 151.567 22.465 150.585Z" fill="#263238"/>
<path d="M14.9141 121.78C17.3415 119.348 17.3415 115.404 14.9141 112.972C12.4867 110.54 8.55105 110.54 6.12363 112.972C3.69621 115.404 3.69621 119.348 6.12363 121.78C8.55105 124.212 12.4867 124.212 14.9141 121.78Z" fill="#263238"/>
<path d="M20.2071 114.006L15.089 118.336L13.2431 116.146L18.3613 111.815C18.6308 111.587 18.9796 111.476 19.3311 111.506C19.6826 111.535 20.008 111.704 20.2355 111.974L20.3616 112.123C20.4752 112.257 20.5612 112.412 20.6149 112.579C20.6686 112.746 20.6889 112.922 20.6745 113.097C20.6602 113.272 20.6115 113.442 20.5313 113.598C20.4511 113.754 20.3409 113.892 20.2071 114.006Z" fill="#263238"/>
<path d="M13.7062 106.074V112.602C13.7062 112.652 13.6862 112.701 13.6505 112.736C13.6149 112.772 13.5666 112.792 13.5162 112.792H11.0407C10.9903 112.792 10.942 112.772 10.9064 112.736C10.8707 112.701 10.8507 112.652 10.8507 112.602V106.074C10.8507 105.721 10.9908 105.382 11.2403 105.132C11.4897 104.882 11.828 104.742 12.1807 104.742H12.3762C12.7289 104.742 13.0672 104.882 13.3166 105.132C13.5661 105.382 13.7062 105.721 13.7062 106.074Z" fill="#263238"/>
<path d="M9.09676 106.099L10.5189 112.469C10.5299 112.518 10.521 112.57 10.494 112.613C10.467 112.655 10.4242 112.685 10.375 112.696L7.95924 113.238C7.91007 113.249 7.85854 113.24 7.81598 113.213C7.77343 113.186 7.74335 113.143 7.73235 113.094L6.31017 106.724C6.23316 106.379 6.29606 106.017 6.48501 105.719C6.67397 105.421 6.97351 105.21 7.31774 105.132L7.50846 105.09C7.8527 105.012 8.21342 105.075 8.51128 105.265C8.80915 105.454 9.01975 105.754 9.09676 106.099Z" fill="#263238"/>
<path d="M4.13791 107.696L7.3951 113.348C7.42029 113.392 7.42711 113.444 7.41407 113.493C7.40103 113.542 7.36919 113.583 7.32555 113.608L5.18174 114.849C5.13809 114.874 5.08624 114.881 5.03756 114.868C4.98889 114.855 4.94738 114.823 4.92218 114.779L1.665 109.126C1.48863 108.82 1.44083 108.456 1.53213 108.115C1.62343 107.773 1.84634 107.482 2.15182 107.306L2.32107 107.208C2.62656 107.031 2.98959 106.983 3.33031 107.075C3.67104 107.166 3.96154 107.389 4.13791 107.696Z" fill="#263238"/>
<path d="M146.756 201.45L153.6 198.533L133.852 152.007L127.008 154.923L146.756 201.45Z" fill="#FFB703"/>
<path d="M134.833 156.453C138.453 152.171 137.923 145.759 133.65 142.132C129.377 138.505 122.978 139.035 119.358 143.317C115.738 147.599 116.267 154.01 120.54 157.638C124.814 161.265 131.212 160.734 134.833 156.453Z" fill="#263238"/>
<path d="M127.116 160.083C125.525 160.083 123.956 159.71 122.536 158.992C121.115 158.274 119.883 157.233 118.937 155.95C117.992 154.668 117.36 153.182 117.093 151.61C116.826 150.039 116.931 148.426 117.399 146.903C117.954 145.106 118.996 143.498 120.408 142.259C121.82 141.02 123.548 140.197 125.399 139.882C127.25 139.568 129.151 139.774 130.892 140.477C132.634 141.18 134.146 142.354 135.261 143.867C136.377 145.38 137.052 147.173 137.211 149.047C137.371 150.922 137.008 152.804 136.164 154.484C135.32 156.164 134.028 157.577 132.43 158.565C130.833 159.554 128.993 160.079 127.116 160.083ZM127.116 139.75C125.242 139.752 123.405 140.275 121.81 141.26C120.214 142.246 118.923 143.656 118.08 145.333C117.237 147.01 116.874 148.888 117.033 150.76C117.192 152.631 117.865 154.421 118.979 155.931C120.093 157.442 121.603 158.613 123.341 159.315C125.08 160.016 126.978 160.221 128.826 159.906C130.673 159.591 132.398 158.769 133.806 157.53C135.215 156.292 136.254 154.686 136.806 152.892C137.595 150.32 137.333 147.54 136.078 145.162C134.823 142.784 132.678 141.002 130.113 140.207C129.132 139.903 128.11 139.748 127.083 139.75H127.116Z" fill="#263238"/>
<path d="M147.627 180.265C148.752 176.21 146.383 172.009 142.336 170.882C138.289 169.755 134.096 172.129 132.972 176.184C131.847 180.239 134.216 184.44 138.263 185.567C142.31 186.694 146.503 184.32 147.627 180.265Z" fill="#263238"/>
<path d="M151.768 208.173C155.2 208.173 157.983 205.384 157.983 201.945C157.983 198.505 155.2 195.716 151.768 195.716C148.335 195.716 145.552 198.505 145.552 201.945C145.552 205.384 148.335 208.173 151.768 208.173Z" fill="#263238"/>
<path d="M143.638 208.217L147.118 202.494L149.561 203.986L146.081 209.709C145.897 210.01 145.601 210.227 145.259 210.31C144.916 210.393 144.554 210.337 144.253 210.153L144.086 210.051C143.936 209.96 143.805 209.841 143.702 209.7C143.598 209.558 143.523 209.398 143.482 209.227C143.44 209.057 143.432 208.88 143.459 208.706C143.486 208.533 143.547 208.367 143.638 208.217Z" fill="#263238"/>
<path d="M152.304 213.675L150.241 207.483C150.225 207.435 150.229 207.383 150.251 207.338C150.274 207.293 150.313 207.258 150.361 207.242L152.709 206.457C152.757 206.441 152.809 206.444 152.854 206.467C152.899 206.49 152.934 206.529 152.95 206.577L155.012 212.769C155.066 212.935 155.086 213.111 155.071 213.285C155.057 213.46 155.008 213.63 154.928 213.785C154.848 213.941 154.739 214.079 154.605 214.192C154.472 214.305 154.318 214.391 154.151 214.444L153.966 214.506C153.635 214.612 153.276 214.585 152.966 214.429C152.655 214.274 152.418 214.003 152.304 213.675Z" fill="#263238"/>
<path d="M156.673 212.191L153.311 206.6C153.298 206.578 153.29 206.555 153.286 206.53C153.282 206.505 153.284 206.48 153.29 206.456C153.296 206.431 153.306 206.409 153.321 206.388C153.336 206.368 153.355 206.351 153.376 206.338L155.496 205.058C155.518 205.045 155.541 205.037 155.566 205.033C155.591 205.029 155.616 205.031 155.64 205.037C155.664 205.043 155.687 205.053 155.707 205.068C155.727 205.083 155.744 205.102 155.757 205.123L159.119 210.714C159.301 211.017 159.356 211.38 159.271 211.723C159.186 212.066 158.968 212.361 158.666 212.543L158.499 212.644C158.197 212.827 157.835 212.881 157.492 212.796C157.15 212.711 156.855 212.493 156.673 212.191Z" fill="#263238"/>
<path d="M160.87 209.108L155.994 204.78C155.956 204.746 155.933 204.699 155.93 204.649C155.927 204.598 155.944 204.549 155.978 204.511L157.616 202.658C157.649 202.621 157.696 202.598 157.746 202.595C157.797 202.591 157.846 202.609 157.884 202.642L162.76 206.971C163.024 207.205 163.184 207.535 163.205 207.888C163.227 208.24 163.107 208.587 162.873 208.852L162.744 208.998C162.509 209.261 162.18 209.42 161.829 209.441C161.478 209.462 161.133 209.342 160.87 209.108Z" fill="#263238"/>
<path d="M48.9436 138.271C48.9436 138.271 49.6765 209.603 89.6259 210.996C129.575 212.388 131.253 138.782 131.253 138.271C131.253 138.271 126.535 127.636 90.0982 128.05C53.6611 128.463 48.9436 138.271 48.9436 138.271Z" fill="#FFB703"/>
<path d="M71.3748 125.716H105.141C107.345 125.716 109.131 123.926 109.131 121.718V121.136C109.131 118.928 107.345 117.138 105.141 117.138H71.3748C69.1711 117.138 67.3847 118.928 67.3847 121.136V121.718C67.3847 123.926 69.1711 125.716 71.3748 125.716Z" fill="#263238"/>
<path d="M86.803 62.287H89.7181V47.5189H86.803V62.287Z" fill="#263238"/>
<path d="M132.835 106.252C137.438 105.156 140.282 100.529 139.188 95.9167C138.094 91.3047 133.476 88.4545 128.873 89.5507C124.27 90.6469 121.426 95.2743 122.52 99.8863C123.614 104.498 128.232 107.348 132.835 106.252Z" fill="#FFB703"/>
<path d="M46.2761 105.695C50.8899 104.646 53.7818 100.048 52.7353 95.4254C51.6887 90.8023 47.1 87.9047 42.4861 88.9533C37.8723 90.002 34.9804 94.5998 36.0269 99.2228C37.0735 103.846 41.6622 106.744 46.2761 105.695Z" fill="#FFB703"/>
<path d="M86.5642 59.0833C86.5642 59.0833 51.734 58.6644 46.2293 88.9131C40.7247 119.162 70.1697 119.706 78.6438 120.277C82.4818 120.538 90.7008 120.565 97.9535 120.435C114.011 120.157 125.357 117.046 129.217 102.12C129.677 100.37 129.966 98.5792 130.08 96.7731C131.095 80.3895 120.059 58.2782 86.5642 59.0833Z" fill="#FFB703"/>
<path d="M111.829 105.123L61.2285 105.911C59.966 105.934 58.7115 105.706 57.5368 105.242C56.3621 104.778 55.2902 104.087 54.3826 103.207C53.475 102.327 52.7494 101.277 52.2474 100.116C51.7453 98.9551 51.4768 97.7064 51.457 96.4413C51.4354 95.176 51.663 93.9189 52.1267 92.7418C52.5905 91.5647 53.2813 90.4908 54.1596 89.5814C55.0379 88.6721 56.0865 87.9451 57.2454 87.4422C58.4043 86.9392 59.6509 86.6701 60.9137 86.6503L111.514 85.8616C112.777 85.8385 114.032 86.0654 115.207 86.5292C116.382 86.993 117.454 87.6846 118.362 88.5644C119.269 89.4441 119.995 90.4948 120.497 91.656C120.998 92.8173 121.267 94.0664 121.286 95.3316C121.308 96.5971 121.081 97.8546 120.617 99.032C120.154 100.209 119.463 101.284 118.585 102.193C117.706 103.103 116.657 103.83 115.498 104.332C114.339 104.835 113.092 105.104 111.829 105.123Z" fill="#263238"/>
<path d="M71.7439 95.3914C71.6262 95.9909 71.3337 96.542 70.9035 96.975C70.4733 97.408 69.9246 97.7035 69.3268 97.824C68.729 97.9446 68.1089 97.8848 67.545 97.6523C66.9811 97.4198 66.4987 97.025 66.1587 96.5178C65.8187 96.0106 65.6364 95.4138 65.6349 94.8028C65.6334 94.1918 65.8127 93.5941 66.1502 93.0852C66.4877 92.5763 66.9682 92.1791 67.5309 91.9438C68.0937 91.7086 68.7134 91.6457 69.3118 91.7633C69.7093 91.8415 70.0876 91.9973 70.4249 92.2219C70.7623 92.4465 71.0522 92.7356 71.278 93.0725C71.5039 93.4094 71.6613 93.7876 71.7412 94.1855C71.8211 94.5834 71.822 94.9932 71.7439 95.3914Z" fill="white"/>
<path d="M107.079 94.8258C106.962 95.4257 106.671 95.9776 106.241 96.4114C105.811 96.8452 105.262 97.1415 104.665 97.2629C104.067 97.3842 103.446 97.3251 102.882 97.093C102.317 96.861 101.834 96.4664 101.494 95.9592C101.153 95.452 100.971 94.855 100.969 94.2437C100.967 93.6325 101.146 93.0344 101.484 92.5252C101.822 92.0161 102.302 91.6187 102.865 91.3833C103.428 91.148 104.048 91.0853 104.647 91.2031C105.449 91.3609 106.155 91.8311 106.611 92.5103C107.067 93.1895 107.235 94.0223 107.079 94.8258Z" fill="white"/>
<path d="M101.992 166.599C101.794 169.321 100.795 171.923 99.1205 174.076C97.4464 176.229 95.1728 177.836 92.5871 178.694C90.0014 179.552 87.2198 179.623 84.5941 178.897C81.9683 178.172 79.6163 176.682 77.8354 174.617C76.0545 172.552 74.9247 170.004 74.5889 167.296C74.2532 164.587 74.7264 161.84 75.9489 159.401C77.1714 156.962 79.0883 154.941 81.457 153.594C83.8257 152.246 86.54 151.633 89.2567 151.831C92.8996 152.098 96.2875 153.804 98.6757 156.573C101.064 159.343 102.257 162.949 101.992 166.599Z" fill="#263238"/>
<path d="M98.2629 166.327C98.118 168.311 97.3892 170.207 96.1687 171.776C94.9482 173.345 93.2908 174.516 91.4061 175.141C89.5214 175.766 87.494 175.817 85.5803 175.288C83.6667 174.758 81.9527 173.672 80.6551 172.167C79.3576 170.661 78.5347 168.804 78.2906 166.83C78.0466 164.856 78.3922 162.853 79.2839 161.076C80.1755 159.299 81.5731 157.826 83.3 156.845C85.0268 155.863 87.0053 155.417 88.9853 155.563C90.3001 155.658 91.5832 156.013 92.7612 156.606C93.9392 157.199 94.989 158.018 95.8507 159.018C96.7123 160.018 97.3688 161.178 97.7827 162.432C98.1966 163.686 98.3598 165.01 98.2629 166.327Z" fill="white"/>
<path d="M93.4258 168.155C93.3492 167.605 93.3183 167.05 93.3336 166.496C93.3064 165.457 93.2847 163.972 93.2847 162.144L93.3933 162.345L88.2306 159.327H88.5183L83.3069 162.258C83.1657 162.498 83.4969 161.937 83.4643 161.997V162.77V163.548C83.4643 164.059 83.4643 164.57 83.4371 165.071C83.4371 166.071 83.3991 167.04 83.3829 167.975L83.2417 167.725L88.3446 170.847H88.1166C89.7072 169.988 91.021 169.302 91.9167 168.835C92.3986 168.56 92.9014 168.323 93.4204 168.128C93.0156 168.458 92.5792 168.748 92.1175 168.992C91.2381 169.536 89.9461 170.303 88.3175 171.244L88.2035 171.31L88.0895 171.244L82.9214 168.225L82.7803 168.144V167.97C82.7803 167.034 82.7911 166.066 82.8128 165.065C82.8128 164.565 82.8128 164.059 82.8128 163.542V162.77V162.019C82.7803 162.079 83.1114 161.524 82.9703 161.758L88.1981 158.853L88.3501 158.772L88.4912 158.859L93.5887 161.981L93.7027 162.052V162.182C93.643 164.064 93.5833 165.576 93.529 166.605C93.5429 167.123 93.5083 167.642 93.4258 168.155Z" fill="#FFB703"/>
<path d="M91.6609 50.6237C93.5371 48.7437 93.5371 45.6957 91.6609 43.8158C89.7847 41.9358 86.7428 41.9358 84.8665 43.8158C82.9903 45.6957 82.9903 48.7437 84.8665 50.6237C86.7428 52.5036 89.7847 52.5036 91.6609 50.6237Z" fill="#FFB703"/>
<path d="M80.5872 93.9663C80.8152 93.9935 80.7012 95.0542 81.3743 96.5066C81.7557 97.3401 82.3111 98.0821 83.0029 98.6823C83.8139 99.3972 84.8234 99.847 85.8964 99.9715C86.9751 100.041 88.0497 99.7834 88.9799 99.2317C89.7671 98.773 90.448 98.1518 90.9776 97.4095C91.9005 96.1203 91.9819 95.0379 92.2099 95.0542C92.3022 95.0542 92.3945 95.3262 92.3945 95.8375C92.3738 96.566 92.1882 97.2802 91.8516 97.9262C91.3458 98.9027 90.5981 99.7324 89.6801 100.336C88.5453 101.137 87.163 101.508 85.7804 101.381C84.3979 101.255 83.1055 100.639 82.1343 99.6451C81.3417 98.8855 80.7583 97.9337 80.4406 96.8819C80.2143 96.1801 80.1548 95.435 80.2669 94.7061C80.3592 94.2002 80.5003 93.95 80.5872 93.9663Z" fill="white"/>
<path d="M126.964 108.06C126.91 108.06 127.534 107.081 128.137 105.367C128.886 103.123 129.36 100.796 129.548 98.4376C129.766 96.0871 129.82 93.7243 129.711 91.3663C129.673 90.4579 129.63 89.7345 129.586 89.1905C129.549 88.9275 129.54 88.6613 129.559 88.3964C129.629 88.6526 129.674 88.9149 129.695 89.1796C129.771 89.6855 129.847 90.4198 129.912 91.3554C130.082 93.7324 130.055 96.1195 129.83 98.492C129.639 100.873 129.134 103.218 128.327 105.465C128.071 106.143 127.763 106.8 127.404 107.429C127.276 107.652 127.128 107.863 126.964 108.06Z" fill="#263238"/>
<path d="M46.2945 87.9014C46.2637 88.1655 46.2074 88.426 46.1262 88.6792C46.0556 88.924 45.9796 89.2231 45.909 89.5822C45.8385 89.9412 45.7299 90.3328 45.6647 90.7843C45.4744 91.8327 45.3475 92.8917 45.2847 93.9555C45.2117 95.257 45.2299 96.562 45.339 97.861C45.4603 99.1577 45.6707 100.444 45.9687 101.712C46.218 102.749 46.5298 103.77 46.9025 104.769C47.049 105.199 47.2173 105.574 47.3531 105.911C47.4888 106.249 47.6191 106.531 47.7276 106.76C47.8514 106.995 47.9532 107.241 48.0316 107.494C47.8771 107.279 47.7427 107.049 47.6299 106.809C47.4764 106.537 47.3369 106.257 47.2119 105.971C47.0599 105.645 46.8753 105.269 46.7179 104.84C46.3148 103.843 45.9811 102.82 45.719 101.777C45.4013 100.498 45.18 99.1957 45.0567 97.8827C44.9461 96.5709 44.9352 95.2526 45.0242 93.9391C45.0999 92.8659 45.2486 91.7991 45.4693 90.7462C45.5507 90.2947 45.6647 89.8976 45.757 89.5441C45.8493 89.1905 45.9362 88.8913 46.0176 88.6466C46.0896 88.3911 46.1822 88.1418 46.2945 87.9014Z" fill="#263238"/>
<path d="M48.759 138.211L48.9653 138.271L49.5733 138.477L51.8859 139.293L53.558 139.891C54.1714 140.098 54.85 140.294 55.572 140.517C57.0214 140.947 58.6554 141.507 60.512 141.942L63.4055 142.687C64.4152 142.943 65.4793 143.133 66.5758 143.373C68.7473 143.873 71.1305 144.216 73.6331 144.618C79.0452 145.362 84.4998 145.753 89.9624 145.788C95.4252 145.756 100.88 145.365 106.292 144.618C108.778 144.216 111.145 143.879 113.349 143.373C114.435 143.139 115.521 142.948 116.519 142.693L119.418 141.948C121.269 141.512 122.903 140.952 124.353 140.522C125.075 140.299 125.754 140.104 126.367 139.897L128.039 139.299L130.352 138.483L130.96 138.276C131.028 138.249 131.099 138.229 131.171 138.216L130.97 138.303L130.373 138.537L128.077 139.402L126.367 140.044C125.759 140.256 125.08 140.457 124.358 140.691C122.909 141.137 121.28 141.708 119.424 142.16L116.525 142.921C115.521 143.182 114.451 143.378 113.354 143.623C111.183 144.134 108.794 144.482 106.297 144.896C100.874 145.658 95.4061 146.056 89.9299 146.087C84.4554 146.052 78.9894 145.652 73.5679 144.89C71.0762 144.482 68.6822 144.129 66.5107 143.617C65.425 143.373 64.3392 143.177 63.3404 142.916L60.4415 142.154C58.5849 141.703 56.9563 141.132 55.5068 140.686C54.7848 140.452 54.1117 140.25 53.4982 140.038L51.8316 139.413L49.5353 138.548L48.9382 138.314C48.8753 138.285 48.8153 138.251 48.759 138.211Z" fill="#263238"/>
<g opacity="0.3">
<path d="M48.9436 138.27C48.9436 138.27 53.6611 128.479 90.0982 128.05C126.535 127.62 131.253 138.27 131.253 138.27C131.253 138.27 94.4791 156.433 48.9436 138.27Z" fill="black"/>
</g>
<path d="M82.1507 61.346C82.1092 61.3499 82.0674 61.3499 82.0258 61.346L81.6621 61.3841C81.3364 61.4167 80.8587 61.4276 80.2452 61.4983C78.5144 61.6666 76.7968 61.9519 75.1043 62.3523C66.3504 64.3611 58.6292 69.5021 53.3897 76.8103C50.8584 80.3223 48.9419 84.2402 47.7222 88.3963C47.5322 88.9838 47.4291 89.4515 47.3368 89.7616L47.2336 90.1206C47.2239 90.1621 47.2093 90.2022 47.1902 90.2403C47.183 90.1989 47.183 90.1566 47.1902 90.1152C47.1902 90.0173 47.2336 89.8976 47.2662 89.7507C47.3422 89.4352 47.4236 88.962 47.5974 88.3637C48.0505 86.6738 48.6312 85.0208 49.3345 83.4192C51.6549 78.0967 55.1874 73.3928 59.649 69.6846C64.1295 66.0044 69.4076 63.4262 75.0609 62.1565C76.7633 61.7689 78.4929 61.5125 80.2344 61.3895C80.8532 61.3351 81.3201 61.3405 81.6567 61.3242H82.0258C82.1127 61.3351 82.1507 61.3405 82.1507 61.346Z" fill="white"/>
<path d="M48.075 103.219C47.8574 102.882 47.6892 102.516 47.5755 102.131C46.9316 100.313 46.6315 98.391 46.6907 96.463C46.6752 96.0628 46.7228 95.6626 46.8318 95.2772C46.9187 95.2772 46.7992 97.094 47.1467 99.2915C47.4941 101.489 48.1564 103.186 48.075 103.219Z" fill="white"/>
<path d="M38.9386 100.407C38.9386 100.407 38.8138 100.32 38.6455 100.113C38.4056 99.82 38.1998 99.5006 38.032 99.161C37.4523 98.0366 37.2305 96.7611 37.3965 95.5065C37.5625 94.2519 38.1083 93.0784 38.9603 92.1441C39.2099 91.858 39.4923 91.6023 39.8018 91.3826C39.908 91.293 40.0294 91.223 40.1601 91.1759C40.1926 91.2194 39.7041 91.5512 39.1123 92.2638C38.3357 93.1957 37.8388 94.3292 37.6793 95.5327C37.5198 96.7362 37.7042 97.9604 38.2112 99.0631C38.5912 99.928 38.9766 100.374 38.9386 100.407Z" fill="white"/>
<path d="M88.5727 43.8636C88.149 43.8169 87.7221 43.8078 87.2969 43.8364C86.7906 43.8809 86.3012 44.0411 85.8662 44.3046C85.4313 44.568 85.0623 44.9278 84.7877 45.3563C84.513 45.7849 84.34 46.2707 84.2819 46.7767C84.2237 47.2826 84.2821 47.7952 84.4523 48.275C84.5989 48.673 84.7805 49.0571 84.9952 49.4227C84.9952 49.4227 84.8866 49.3575 84.7346 49.1834C84.526 48.9316 84.3609 48.6466 84.246 48.3403C84.0389 47.8324 83.957 47.2819 84.0071 46.7355C84.0573 46.1891 84.238 45.6629 84.5341 45.2013C84.8302 44.7397 85.2329 44.3564 85.7082 44.0838C86.1834 43.8112 86.7172 43.6573 87.2643 43.6352C87.5893 43.6126 87.9158 43.6438 88.2306 43.7276C88.4749 43.7657 88.5727 43.8473 88.5727 43.8636Z" fill="white"/>
<path d="M135.889 93.8086C135.829 93.8739 134.988 93.0634 133.717 92.4542C132.447 91.845 131.291 91.6655 131.302 91.5785C132.187 91.5564 133.061 91.7704 133.837 92.1986C134.653 92.5406 135.362 93.0968 135.889 93.8086Z" fill="white"/>
<path d="M61.4295 189.037C61.4048 189.004 61.383 188.97 61.3644 188.933L61.1852 188.613C61.0224 188.302 60.8052 187.889 60.5229 187.361C60.3818 187.089 60.2298 186.785 60.0561 186.458L59.5458 185.371C59.1766 184.582 58.7641 183.684 58.3569 182.651C58.1506 182.145 57.9335 181.612 57.7055 181.063C57.4775 180.513 57.282 179.915 57.0595 179.311C56.5926 178.109 56.1963 176.787 55.7349 175.416C54.8826 172.642 54.0466 169.569 53.3137 166.305C52.5808 163.042 52.0488 159.892 51.6145 157.026C51.1802 154.159 50.898 151.586 50.7242 149.378C50.6211 148.29 50.556 147.3 50.5017 146.43C50.4474 145.559 50.3985 144.798 50.3822 144.2C50.366 143.601 50.3497 143.139 50.3334 142.791V142.426C50.3275 142.385 50.3275 142.343 50.3334 142.301C50.3396 142.343 50.3396 142.385 50.3334 142.426L50.366 142.791C50.366 143.133 50.4257 143.607 50.4637 144.194C50.5017 144.782 50.556 145.554 50.632 146.419C50.708 147.284 50.7785 148.274 50.898 149.362C51.0934 151.537 51.4408 154.126 51.848 156.977C52.2551 159.827 52.8468 162.96 53.5634 166.224C54.28 169.487 55.1214 172.555 55.952 175.324C56.4135 176.695 56.7989 178.011 57.2549 179.213C57.472 179.822 57.6783 180.404 57.8846 180.965L58.5143 182.564C58.9052 183.581 59.3069 184.484 59.6652 185.284L60.1538 186.371C60.3112 186.703 60.4632 187.008 60.5989 187.285L61.207 188.558L61.359 188.89C61.3919 188.934 61.4158 188.984 61.4295 189.037Z" fill="white"/>
<path d="M40.1872 144.689C38.8627 144.739 37.5364 144.692 36.2188 144.548C34.8951 144.501 33.5763 144.361 32.2722 144.129C33.5967 144.079 34.923 144.126 36.2406 144.27C37.5643 144.316 38.8832 144.456 40.1872 144.689Z" fill="white"/>
<path d="M19.7647 133.076C18.9947 131.952 18.3036 130.776 17.6963 129.557C17.0081 128.382 16.4022 127.16 15.8832 125.901C16.6508 127.027 17.34 128.205 17.9461 129.426C18.6378 130.598 19.2456 131.818 19.7647 133.076Z" fill="white"/>
<path d="M80.7012 206.187C80.4875 206.183 80.2747 206.158 80.0661 206.111C79.4917 206.009 78.9242 205.871 78.3669 205.698C77.539 205.445 76.7299 205.134 75.9457 204.768C74.9904 204.306 74.0721 203.771 73.1988 203.168C72.3354 202.55 71.5221 201.865 70.7668 201.118C70.155 200.504 69.5889 199.846 69.0731 199.149C68.7196 198.684 68.3985 198.195 68.1122 197.685C67.995 197.507 67.8985 197.315 67.8245 197.114C67.8679 197.087 68.3239 197.876 69.2305 199.029C69.7634 199.699 70.3382 200.335 70.9514 200.933C72.454 202.396 74.1781 203.611 76.0597 204.534C76.8284 204.906 77.6188 205.231 78.4266 205.507C79.8163 205.975 80.7121 206.133 80.7012 206.187Z" fill="white"/>
<path d="M89.0287 181.025C88.9031 181.046 88.7761 181.059 88.6487 181.063C88.2876 181.093 87.9252 181.104 87.563 181.095C86.213 181.065 84.8738 180.848 83.5838 180.448C82.6924 180.17 81.8246 179.821 80.9889 179.404C80.0305 178.91 79.1216 178.325 78.2745 177.658C76.3123 176.147 74.7656 174.161 73.7798 171.887C72.7941 169.613 72.4017 167.125 72.6396 164.657C72.7281 163.586 72.919 162.526 73.2096 161.492C73.4698 160.594 73.8057 159.721 74.2139 158.881C74.8027 157.662 75.5593 156.532 76.4614 155.524C76.7033 155.249 76.9607 154.987 77.2322 154.741C77.3221 154.651 77.4182 154.567 77.52 154.491C77.52 154.491 77.1617 154.877 76.5428 155.579C75.6741 156.602 74.944 157.736 74.3713 158.951C73.5176 160.742 73.0092 162.678 72.873 164.657C72.653 167.081 73.0448 169.522 74.0124 171.755C74.9799 173.988 76.4923 175.941 78.4103 177.435C79.2324 178.098 80.1158 178.68 81.0486 179.175C81.866 179.607 82.7176 179.971 83.5946 180.263C84.8655 180.676 86.1852 180.919 87.5195 180.986C88.5021 181.025 89.0287 180.992 89.0287 181.025Z" fill="white"/>
<path d="M23.3041 138.189C23.3041 138.232 22.8861 138.031 22.2184 137.873C21.3249 137.677 20.3987 137.687 19.5093 137.901C18.6199 138.114 17.7904 138.527 17.0829 139.108C16.54 139.56 16.2795 139.919 16.2415 139.891C16.3904 139.532 16.6209 139.211 16.9146 138.956C17.6192 138.308 18.4771 137.851 19.4071 137.628C20.3371 137.406 21.3085 137.425 22.2293 137.683C22.6216 137.767 22.9895 137.94 23.3041 138.189Z" fill="white"/>
<path d="M103.469 84.1046C103.469 84.1807 96.8025 84.246 88.5835 84.246C80.3646 84.246 73.6927 84.1807 73.6927 84.1046C73.6927 84.0284 80.3591 83.9631 88.5835 83.9631C96.8079 83.9631 103.469 84.0175 103.469 84.1046Z" fill="white"/>
<path d="M78.0629 118.117C77.9815 118.14 77.8976 118.153 77.8132 118.156L77.0857 118.221C76.7709 118.248 76.3854 118.27 75.9349 118.281C75.4843 118.292 74.974 118.313 74.4094 118.281C73.2748 118.281 71.9285 118.199 70.4356 118.041C68.8201 117.853 67.2162 117.575 65.6313 117.209C64.0501 116.829 62.4915 116.361 60.9626 115.806C59.7171 115.349 58.4958 114.828 57.3037 114.245C56.7609 114.005 56.3429 113.755 55.9466 113.543C55.5503 113.331 55.2137 113.14 54.9423 112.999L54.318 112.618C54.244 112.577 54.1748 112.528 54.1117 112.471C54.1117 112.471 54.1986 112.471 54.3451 112.569L54.9966 112.901C55.2734 113.053 55.6154 113.233 56.0172 113.445C56.4189 113.657 56.8749 113.875 57.3906 114.103C58.4112 114.582 59.6543 115.093 61.0549 115.599C64.099 116.693 67.2569 117.437 70.4682 117.818C71.9448 117.992 73.2857 118.09 74.4094 118.117C74.9523 118.15 75.4951 118.117 75.9349 118.117C76.3746 118.117 76.7654 118.117 77.0803 118.117H77.8077C77.8922 118.103 77.9784 118.103 78.0629 118.117Z" fill="white"/>
<path d="M121.4 142.628C121.36 142.654 121.316 142.674 121.27 142.687L120.879 142.834L119.369 143.378C118.713 143.618 117.909 143.895 116.959 144.172C116.009 144.45 114.94 144.809 113.729 145.113L111.84 145.614C111.183 145.782 110.488 145.924 109.777 146.092C108.355 146.435 106.813 146.707 105.195 147.017C98.149 148.247 90.9879 148.687 83.8444 148.328C82.2158 148.225 80.6361 148.143 79.1812 147.975C78.4538 147.898 77.7481 147.844 77.0749 147.752L75.1369 147.485C73.8992 147.338 72.7917 147.115 71.82 146.941C70.8483 146.767 70.0068 146.604 69.3282 146.446L67.7648 146.098L67.3576 146C67.3105 145.992 67.2648 145.978 67.2219 145.956C67.2707 145.952 67.3197 145.952 67.3685 145.956L67.7756 146.027L69.35 146.326C70.034 146.462 70.87 146.62 71.8471 146.767C72.8243 146.914 73.9263 147.126 75.164 147.262L77.0966 147.507C77.7698 147.594 78.4755 147.643 79.2029 147.713C80.6524 147.871 82.2158 147.942 83.8553 148.04C87.1396 148.176 90.7497 148.181 94.5389 147.958C98.3281 147.735 101.906 147.262 105.146 146.729C106.775 146.43 108.306 146.185 109.728 145.837C110.439 145.674 111.134 145.538 111.791 145.374L113.68 144.89C114.891 144.602 115.96 144.265 116.91 143.993C117.86 143.721 118.675 143.449 119.331 143.248L120.857 142.758L121.259 142.638L121.4 142.628Z" fill="white"/>
<rect opacity="0.4" width="248" height="235" fill="#FAFAFA"/>
</svg>
